<svg width="320" height="97" viewBox="0 0 320 97" fill="none" xmlns="http://www.w3.org/2000/svg">
<g clip-path="url(#clip0_18_9)">
<g style="mix-blend-mode:color-dodge">
<path d="M147.609 17.7031H168.094C170.594 17.7031 172.953 18.7656 175.172 20.8906C177.422 22.9844 178.547 25.5312 178.547 28.5312C178.547 29.6562 178.141 30.6094 177.328 31.3906C176.547 32.1719 175.672 32.5625 174.703 32.5625C173.359 32.5625 172.438 32.2656 171.938 31.6719C171.438 31.0469 170.953 29.9062 170.484 28.25C170.047 26.5938 169.047 25.7656 167.484 25.7656H148.031C147.094 25.7656 146.625 26.0625 146.625 26.6562C146.625 27.0312 146.828 27.4687 147.234 27.9688L176.438 65.3281C177.844 67.1406 178.547 69.0781 178.547 71.1406C178.547 73.4844 177.688 75.5469 175.969 77.3281C174.281 79.1094 172.391 80 170.297 80H149.062C146.25 80 143.797 78.9375 141.703 76.8125C139.641 74.6562 138.609 72.2969 138.609 69.7344C138.609 66.7969 139.984 65.3281 142.734 65.3281C143.797 65.3281 144.703 65.7188 145.453 66.5C146.203 67.25 146.578 68.1406 146.578 69.1719C146.578 70.0156 146.859 70.7188 147.422 71.2812C148.016 71.8438 148.75 72.125 149.625 72.125H169.219C170.062 72.125 170.484 71.7969 170.484 71.1406C170.484 70.8281 170.281 70.4219 169.875 69.9219L140.719 32.5625C139.344 30.7812 138.656 28.8438 138.656 26.75C138.656 24.3125 139.531 22.2031 141.281 20.4219C143.031 18.6094 145.141 17.7031 147.609 17.7031Z" fill="#FF004F"/>
</g>
<g style="mix-blend-mode:lighten" opacity="0.3">
<path d="M169.391 17.7031H148.906C146.406 17.7031 144.047 18.7656 141.828 20.8906C139.578 22.9844 138.453 25.5312 138.453 28.5312C138.453 29.6562 138.859 30.6094 139.672 31.3906C140.453 32.1719 141.328 32.5625 142.297 32.5625C143.641 32.5625 144.562 32.2656 145.062 31.6719C145.562 31.0469 146.047 29.9062 146.516 28.25C146.953 26.5938 147.953 25.7656 149.516 25.7656H168.969C169.906 25.7656 170.375 26.0625 170.375 26.6562C170.375 27.0312 170.172 27.4687 169.766 27.9688L140.562 65.3281C139.156 67.1406 138.453 69.0781 138.453 71.1406C138.453 73.4844 139.312 75.5469 141.031 77.3281C142.719 79.1094 144.609 80 146.703 80H167.938C170.75 80 173.203 78.9375 175.297 76.8125C177.359 74.6562 178.391 72.2969 178.391 69.7344C178.391 66.7969 177.016 65.3281 174.266 65.3281C173.203 65.3281 172.297 65.7188 171.547 66.5C170.797 67.25 170.422 68.1406 170.422 69.1719C170.422 70.0156 170.141 70.7188 169.578 71.2812C168.984 71.8438 168.25 72.125 167.375 72.125H147.781C146.938 72.125 146.516 71.7969 146.516 71.1406C146.516 70.8281 146.719 70.4219 147.125 69.9219L176.281 32.5625C177.656 30.7812 178.344 28.8438 178.344 26.75C178.344 24.3125 177.469 22.2031 175.719 20.4219C173.969 18.6094 171.859 17.7031 169.391 17.7031Z" fill="white"/>
</g>
<path d="M184.469 77.5645V57.7231C184.469 57.3358 184.606 56.9997 184.879 56.7148C185.164 56.43 185.506 56.2876 185.905 56.2876C186.292 56.2876 186.628 56.43 186.913 56.7148C187.198 56.9997 187.34 57.3358 187.34 57.7231V66.1826H196.09V57.7231C196.09 57.3358 196.227 56.9997 196.5 56.7148C196.785 56.43 197.127 56.2876 197.526 56.2876C197.925 56.2876 198.261 56.43 198.534 56.7148C198.819 56.9997 198.961 57.3472 198.961 57.7573V77.5645C198.961 77.9518 198.813 78.2879 198.517 78.5728C198.232 78.8576 197.902 79 197.526 79C197.116 79 196.774 78.8633 196.5 78.5898C196.227 78.305 196.09 77.9632 196.09 77.5645V69.0537H187.375V77.5645C187.375 77.9518 187.226 78.2879 186.93 78.5728C186.645 78.8576 186.304 79 185.905 79C185.517 79 185.181 78.8633 184.896 78.5898C184.612 78.305 184.469 77.9632 184.469 77.5645ZM218.717 59.1929H208.566V66.1826H212.941C213.328 66.1826 213.664 66.325 213.949 66.6099C214.234 66.8947 214.376 67.2308 214.376 67.6182C214.376 68.0283 214.234 68.3758 213.949 68.6606C213.676 68.9455 213.34 69.0879 212.941 69.0879H208.566V76.1289H218.751C219.139 76.1289 219.475 76.2713 219.76 76.5562C220.045 76.8296 220.187 77.1657 220.187 77.5645C220.187 77.9632 220.039 78.305 219.743 78.5898C219.458 78.8633 219.116 79 218.717 79H205.695V56.2876H218.717C219.116 56.2876 219.458 56.4357 219.743 56.7319C220.039 57.0168 220.187 57.3586 220.187 57.7573C220.187 58.1447 220.039 58.4808 219.743 58.7656C219.458 59.0505 219.116 59.1929 218.717 59.1929ZM226.886 77.5645V56.2876H237.038C238.211 56.2876 239.219 56.7148 240.062 57.5693C240.917 58.4238 241.344 59.4435 241.344 60.6284V62.269C241.344 63.4653 240.923 64.4907 240.08 65.3452C239.236 66.1883 238.222 66.6099 237.038 66.6099H235.209L241.088 76.6929C241.27 76.9891 241.361 77.2853 241.361 77.5815C241.361 77.9689 241.213 78.305 240.917 78.5898C240.621 78.8633 240.285 79 239.909 79C239.339 79 238.906 78.7437 238.61 78.231L231.859 66.6099H229.792V77.5645C229.792 77.9632 229.643 78.305 229.347 78.5898C229.062 78.8633 228.721 79 228.322 79C227.923 79 227.581 78.8633 227.296 78.5898C227.023 78.305 226.886 77.9632 226.886 77.5645ZM229.757 63.7388H237.038C237.436 63.7388 237.772 63.6021 238.046 63.3286C238.331 63.0438 238.473 62.702 238.473 62.3032V60.6284C238.473 60.2297 238.331 59.8936 238.046 59.6201C237.772 59.3353 237.436 59.1929 237.038 59.1929H229.757V63.7388ZM258.639 58.3896L261.801 64.8325C262.245 65.7098 262.467 66.6611 262.467 67.6865C262.467 68.6891 262.245 69.6348 261.801 70.5234L258.639 76.8979C257.967 78.2993 256.828 79 255.221 79C254.458 79 253.769 78.8006 253.153 78.4019C252.549 78.0031 252.094 77.5018 251.786 76.8979L248.607 70.5234C248.186 69.6917 247.975 68.7461 247.975 67.6865C247.975 66.627 248.186 65.6756 248.607 64.8325L251.786 58.3896C252.504 56.9883 253.649 56.2876 255.221 56.2876C256.816 56.2876 257.956 56.9883 258.639 58.3896ZM254.264 59.8252L251.291 65.875C251.017 66.4788 250.88 67.0713 250.88 67.6523C250.88 68.279 251.017 68.8771 251.291 69.4468L254.35 75.5649C254.509 75.9409 254.8 76.1289 255.221 76.1289C255.586 76.1289 255.865 75.9409 256.059 75.5649L259.135 69.4468C259.42 68.8429 259.562 68.2448 259.562 67.6523C259.562 67.0257 259.42 66.4333 259.135 65.875L256.127 59.8252C255.933 59.3809 255.631 59.1587 255.221 59.1587C254.811 59.1587 254.492 59.3809 254.264 59.8252ZM283.625 57.7573V79H279.762L272.038 61.3633V77.5645C272.038 77.9632 271.895 78.305 271.61 78.5898C271.337 78.8633 271.001 79 270.602 79C270.203 79 269.861 78.8633 269.577 78.5898C269.303 78.305 269.167 77.9632 269.167 77.5645V56.2876H272.978L280.719 73.8901V57.7573C280.719 57.3586 280.862 57.0168 281.146 56.7319C281.443 56.4357 281.79 56.2876 282.189 56.2876C282.588 56.2876 282.924 56.43 283.197 56.7148C283.482 56.9997 283.625 57.3472 283.625 57.7573Z" fill="white"/>
<path d="M184.623 47.0005L190.434 27.3643C190.661 26.6465 191.14 26.2876 191.869 26.2876C192.576 26.2876 193.02 26.5895 193.202 27.1934L198.927 47.1372C198.973 47.2853 198.996 47.4277 198.996 47.5645C198.996 47.9632 198.859 48.305 198.585 48.5898C198.312 48.8633 197.999 49 197.646 49C196.894 49 196.415 48.6525 196.21 47.9575L195.048 44.061H188.502L187.238 48.231C187.204 48.4132 187.061 48.5898 186.811 48.7607C186.56 48.9202 186.286 49 185.99 49C185.569 49 185.221 48.8576 184.948 48.5728C184.674 48.2879 184.538 47.9404 184.538 47.5303C184.538 47.3594 184.566 47.1828 184.623 47.0005ZM191.835 32.9355L189.374 41.1558H194.21L191.835 32.9355ZM205.78 47.0005L211.591 27.3643C211.819 26.6465 212.297 26.2876 213.026 26.2876C213.733 26.2876 214.177 26.5895 214.359 27.1934L220.084 47.1372C220.13 47.2853 220.153 47.4277 220.153 47.5645C220.153 47.9632 220.016 48.305 219.743 48.5898C219.469 48.8633 219.156 49 218.803 49C218.051 49 217.572 48.6525 217.367 47.9575L216.205 44.061H209.66L208.395 48.231C208.361 48.4132 208.218 48.5898 207.968 48.7607C207.717 48.9202 207.444 49 207.147 49C206.726 49 206.378 48.8576 206.105 48.5728C205.832 48.2879 205.695 47.9404 205.695 47.5303C205.695 47.3594 205.723 47.1828 205.78 47.0005ZM212.992 32.9355L210.531 41.1558H215.368L212.992 32.9355ZM232.628 35.2085V34.4736L229.655 30.2354V47.5645C229.655 47.9632 229.512 48.305 229.228 48.5898C228.954 48.8633 228.618 49 228.219 49C227.82 49 227.479 48.8576 227.194 48.5728C226.92 48.2879 226.784 47.9518 226.784 47.5645V26.2876H230.492L234.03 31.4316L237.67 26.2876H241.31V47.5645C241.31 47.9632 241.162 48.305 240.866 48.5898C240.581 48.8633 240.239 49 239.84 49C239.453 49 239.117 48.8576 238.832 48.5728C238.547 48.2879 238.405 47.9518 238.405 47.5645V30.3037L235.5 34.4053V35.2085C235.5 35.5959 235.357 35.932 235.072 36.2168C234.787 36.5016 234.451 36.644 234.064 36.644C233.665 36.644 233.323 36.5016 233.039 36.2168C232.765 35.932 232.628 35.5959 232.628 35.2085Z" fill="#FF004F"/>
</g>
<defs>
<clipPath id="clip0_18_9">
<rect width="320" height="97" fill="white"/>
</clipPath>
</defs>
</svg>
