<svg width="175" height="97" viewBox="0 0 175 97" fill="none" xmlns="http://www.w3.org/2000/svg">
<g clip-path="url(#clip0_18_2)">
<g style="mix-blend-mode:color-dodge">
<path d="M24.6094 17.7031H45.0938C47.5938 17.7031 49.9531 18.7656 52.1719 20.8906C54.4219 22.9844 55.5469 25.5312 55.5469 28.5312C55.5469 29.6562 55.1406 30.6094 54.3281 31.3906C53.5469 32.1719 52.6719 32.5625 51.7031 32.5625C50.3594 32.5625 49.4375 32.2656 48.9375 31.6719C48.4375 31.0469 47.9531 29.9062 47.4844 28.25C47.0469 26.5938 46.0469 25.7656 44.4844 25.7656H25.0312C24.0938 25.7656 23.625 26.0625 23.625 26.6562C23.625 27.0312 23.8281 27.4687 24.2344 27.9688L53.4375 65.3281C54.8438 67.1406 55.5469 69.0781 55.5469 71.1406C55.5469 73.4844 54.6875 75.5469 52.9688 77.3281C51.2812 79.1094 49.3906 80 47.2969 80H26.0625C23.25 80 20.7969 78.9375 18.7031 76.8125C16.6406 74.6562 15.6094 72.2969 15.6094 69.7344C15.6094 66.7969 16.9844 65.3281 19.7344 65.3281C20.7969 65.3281 21.7031 65.7188 22.4531 66.5C23.2031 67.25 23.5781 68.1406 23.5781 69.1719C23.5781 70.0156 23.8594 70.7188 24.4219 71.2812C25.0156 71.8438 25.75 72.125 26.625 72.125H46.2188C47.0625 72.125 47.4844 71.7969 47.4844 71.1406C47.4844 70.8281 47.2812 70.4219 46.875 69.9219L17.7188 32.5625C16.3438 30.7812 15.6562 28.8438 15.6562 26.75C15.6562 24.3125 16.5312 22.2031 18.2812 20.4219C20.0312 18.6094 22.1406 17.7031 24.6094 17.7031Z" fill="#FF004F"/>
</g>
<g style="mix-blend-mode:lighten" opacity="0.3">
<path d="M46.3906 17.7031H25.9062C23.4062 17.7031 21.0469 18.7656 18.8281 20.8906C16.5781 22.9844 15.4531 25.5312 15.4531 28.5312C15.4531 29.6562 15.8594 30.6094 16.6719 31.3906C17.4531 32.1719 18.3281 32.5625 19.2969 32.5625C20.6406 32.5625 21.5625 32.2656 22.0625 31.6719C22.5625 31.0469 23.0469 29.9062 23.5156 28.25C23.9531 26.5938 24.9531 25.7656 26.5156 25.7656H45.9688C46.9062 25.7656 47.375 26.0625 47.375 26.6562C47.375 27.0312 47.1719 27.4687 46.7656 27.9688L17.5625 65.3281C16.1562 67.1406 15.4531 69.0781 15.4531 71.1406C15.4531 73.4844 16.3125 75.5469 18.0312 77.3281C19.7188 79.1094 21.6094 80 23.7031 80H44.9375C47.75 80 50.2031 78.9375 52.2969 76.8125C54.3594 74.6562 55.3906 72.2969 55.3906 69.7344C55.3906 66.7969 54.0156 65.3281 51.2656 65.3281C50.2031 65.3281 49.2969 65.7188 48.5469 66.5C47.7969 67.25 47.4219 68.1406 47.4219 69.1719C47.4219 70.0156 47.1406 70.7188 46.5781 71.2812C45.9844 71.8438 45.25 72.125 44.375 72.125H24.7812C23.9375 72.125 23.5156 71.7969 23.5156 71.1406C23.5156 70.8281 23.7188 70.4219 24.125 69.9219L53.2812 32.5625C54.6562 30.7812 55.3438 28.8438 55.3438 26.75C55.3438 24.3125 54.4688 22.2031 52.7188 20.4219C50.9688 18.6094 48.8594 17.7031 46.3906 17.7031Z" fill="white"/>
</g>
<path d="M61.4692 75.5645V55.7231C61.4692 55.3358 61.606 54.9997 61.8794 54.7148C62.1642 54.43 62.506 54.2876 62.9048 54.2876C63.2922 54.2876 63.6283 54.43 63.9131 54.7148C64.1979 54.9997 64.3403 55.3358 64.3403 55.7231V64.1826H73.0903V55.7231C73.0903 55.3358 73.2271 54.9997 73.5005 54.7148C73.7853 54.43 74.1271 54.2876 74.5259 54.2876C74.9246 54.2876 75.2607 54.43 75.5342 54.7148C75.819 54.9997 75.9614 55.3472 75.9614 55.7573V75.5645C75.9614 75.9518 75.8133 76.2879 75.5171 76.5728C75.2323 76.8576 74.9019 77 74.5259 77C74.1157 77 73.7739 76.8633 73.5005 76.5898C73.2271 76.305 73.0903 75.9632 73.0903 75.5645V67.0537H64.3745V75.5645C64.3745 75.9518 64.2264 76.2879 63.9302 76.5728C63.6453 76.8576 63.3035 77 62.9048 77C62.5174 77 62.1813 76.8633 61.8965 76.5898C61.6117 76.305 61.4692 75.9632 61.4692 75.5645ZM95.7173 57.1929H85.5659V64.1826H89.9409C90.3283 64.1826 90.6644 64.325 90.9492 64.6099C91.234 64.8947 91.3765 65.2308 91.3765 65.6182C91.3765 66.0283 91.234 66.3758 90.9492 66.6606C90.6758 66.9455 90.3397 67.0879 89.9409 67.0879H85.5659V74.1289H95.7515C96.1388 74.1289 96.4749 74.2713 96.7598 74.5562C97.0446 74.8296 97.187 75.1657 97.187 75.5645C97.187 75.9632 97.0389 76.305 96.7427 76.5898C96.4578 76.8633 96.116 77 95.7173 77H82.6948V54.2876H95.7173C96.116 54.2876 96.4578 54.4357 96.7427 54.7319C97.0389 55.0168 97.187 55.3586 97.187 55.7573C97.187 56.1447 97.0389 56.4808 96.7427 56.7656C96.4578 57.0505 96.116 57.1929 95.7173 57.1929ZM103.886 75.5645V54.2876H114.038C115.211 54.2876 116.219 54.7148 117.062 55.5693C117.917 56.4238 118.344 57.4435 118.344 58.6284V60.269C118.344 61.4653 117.923 62.4907 117.08 63.3452C116.236 64.1883 115.222 64.6099 114.038 64.6099H112.209L118.088 74.6929C118.27 74.9891 118.361 75.2853 118.361 75.5815C118.361 75.9689 118.213 76.305 117.917 76.5898C117.621 76.8633 117.285 77 116.909 77C116.339 77 115.906 76.7437 115.61 76.231L108.859 64.6099H106.792V75.5645C106.792 75.9632 106.643 76.305 106.347 76.5898C106.062 76.8633 105.721 77 105.322 77C104.923 77 104.581 76.8633 104.296 76.5898C104.023 76.305 103.886 75.9632 103.886 75.5645ZM106.757 61.7388H114.038C114.436 61.7388 114.772 61.6021 115.046 61.3286C115.331 61.0438 115.473 60.702 115.473 60.3032V58.6284C115.473 58.2297 115.331 57.8936 115.046 57.6201C114.772 57.3353 114.436 57.1929 114.038 57.1929H106.757V61.7388ZM135.639 56.3896L138.801 62.8325C139.245 63.7098 139.467 64.6611 139.467 65.6865C139.467 66.6891 139.245 67.6348 138.801 68.5234L135.639 74.8979C134.967 76.2993 133.828 77 132.221 77C131.458 77 130.769 76.8006 130.153 76.4019C129.549 76.0031 129.094 75.5018 128.786 74.8979L125.607 68.5234C125.186 67.6917 124.975 66.7461 124.975 65.6865C124.975 64.627 125.186 63.6756 125.607 62.8325L128.786 56.3896C129.504 54.9883 130.649 54.2876 132.221 54.2876C133.816 54.2876 134.956 54.9883 135.639 56.3896ZM131.264 57.8252L128.291 63.875C128.017 64.4788 127.88 65.0713 127.88 65.6523C127.88 66.279 128.017 66.8771 128.291 67.4468L131.35 73.5649C131.509 73.9409 131.8 74.1289 132.221 74.1289C132.586 74.1289 132.865 73.9409 133.059 73.5649L136.135 67.4468C136.42 66.8429 136.562 66.2448 136.562 65.6523C136.562 65.0257 136.42 64.4333 136.135 63.875L133.127 57.8252C132.933 57.3809 132.631 57.1587 132.221 57.1587C131.811 57.1587 131.492 57.3809 131.264 57.8252Z" fill="white"/>
<path d="M160.625 55.7573V77H156.762L149.038 59.3633V75.5645C149.038 75.9632 148.895 76.305 148.61 76.5898C148.337 76.8633 148.001 77 147.602 77C147.203 77 146.861 76.8633 146.577 76.5898C146.303 76.305 146.167 75.9632 146.167 75.5645V54.2876H149.978L157.719 71.8901V55.7573C157.719 55.3586 157.862 55.0168 158.146 54.7319C158.443 54.4357 158.79 54.2876 159.189 54.2876C159.588 54.2876 159.924 54.43 160.197 54.7148C160.482 54.9997 160.625 55.3472 160.625 55.7573Z" fill="#FF004F"/>
</g>
<defs>
<clipPath id="clip0_18_2">
<rect width="175" height="97" fill="white"/>
</clipPath>
</defs>
</svg>
