<svg width="320" height="97" viewBox="0 0 320 97" fill="none" xmlns="http://www.w3.org/2000/svg">
<g clip-path="url(#clip0_18_9)">
<g style="mix-blend-mode:color-dodge">
<path d="M147.609 17.7031H168.094C170.594 17.7031 172.953 18.7656 175.172 20.8906C177.422 22.9844 178.547 25.5312 178.547 28.5312C178.547 29.6562 178.141 30.6094 177.328 31.3906C176.547 32.1719 175.672 32.5625 174.703 32.5625C173.359 32.5625 172.438 32.2656 171.938 31.6719C171.438 31.0469 170.953 29.9062 170.484 28.25C170.047 26.5938 169.047 25.7656 167.484 25.7656H148.031C147.094 25.7656 146.625 26.0625 146.625 26.6562C146.625 27.0312 146.828 27.4687 147.234 27.9688L176.438 65.3281C177.844 67.1406 178.547 69.0781 178.547 71.1406C178.547 73.4844 177.688 75.5469 175.969 77.3281C174.281 79.1094 172.391 80 170.297 80H149.062C146.25 80 143.797 78.9375 141.703 76.8125C139.641 74.6562 138.609 72.2969 138.609 69.7344C138.609 66.7969 139.984 65.3281 142.734 65.3281C143.797 65.3281 144.703 65.7188 145.453 66.5C146.203 67.25 146.578 68.1406 146.578 69.1719C146.578 70.0156 146.859 70.7188 147.422 71.2812C148.016 71.8438 148.75 72.125 149.625 72.125H169.219C170.062 72.125 170.484 71.7969 170.484 71.1406C170.484 70.8281 170.281 70.4219 169.875 69.9219L140.719 32.5625C139.344 30.7812 138.656 28.8438 138.656 26.75C138.656 24.3125 139.531 22.2031 141.281 20.4219C143.031 18.6094 145.141 17.7031 147.609 17.7031Z" fill="#FF004F"/>
</g>
<g style="mix-blend-mode:lighten" opacity="0.3">
<path d="M169.391 17.7031H148.906C146.406 17.7031 144.047 18.7656 141.828 20.8906C139.578 22.9844 138.453 25.5312 138.453 28.5312C138.453 29.6562 138.859 30.6094 139.672 31.3906C140.453 32.1719 141.328 32.5625 142.297 32.5625C143.641 32.5625 144.562 32.2656 145.062 31.6719C145.562 31.0469 146.047 29.9062 146.516 28.25C146.953 26.5938 147.953 25.7656 149.516 25.7656H168.969C169.906 25.7656 170.375 26.0625 170.375 26.6562C170.375 27.0312 170.172 27.4687 169.766 27.9688L140.562 65.3281C139.156 67.1406 138.453 69.0781 138.453 71.1406C138.453 73.4844 139.312 75.5469 141.031 77.3281C142.719 79.1094 144.609 80 146.703 80H167.938C170.75 80 173.203 78.9375 175.297 76.8125C177.359 74.6562 178.391 72.2969 178.391 69.7344C178.391 66.7969 177.016 65.3281 174.266 65.3281C173.203 65.3281 172.297 65.7188 171.547 66.5C170.797 67.25 170.422 68.1406 170.422 69.1719C170.422 70.0156 170.141 70.7188 169.578 71.2812C168.984 71.8438 168.25 72.125 167.375 72.125H147.781C146.938 72.125 146.516 71.7969 146.516 71.1406C146.516 70.8281 146.719 70.4219 147.125 69.9219L176.281 32.5625C177.656 30.7812 178.344 28.8438 178.344 26.75C178.344 24.3125 177.469 22.2031 175.719 20.4219C173.969 18.6094 171.859 17.7031 169.391 17.7031Z" fill="white"/>
</g>
<path d="M183.06 72.615C182.827 72.615 182.71 72.4983 182.71 72.265C182.71 72.0317 182.827 71.915 183.06 71.915C183.293 71.915 183.41 72.0317 183.41 72.265C183.41 72.4983 183.293 72.615 183.06 72.615ZM183.06 74.05C182.827 74.05 182.71 73.9333 182.71 73.7C182.71 73.4667 182.827 73.35 183.06 73.35C183.293 73.35 183.41 73.4667 183.41 73.7C183.41 73.9333 183.293 74.05 183.06 74.05ZM183.06 75.485C182.827 75.485 182.71 75.3683 182.71 75.135C182.71 74.9017 182.827 74.785 183.06 74.785C183.293 74.785 183.41 74.9017 183.41 75.135C183.41 75.3683 183.293 75.485 183.06 75.485ZM183.06 76.92C182.827 76.92 182.71 76.8033 182.71 76.57C182.71 76.3367 182.827 76.22 183.06 76.22C183.293 76.22 183.41 76.3367 183.41 76.57C183.41 76.8033 183.293 76.92 183.06 76.92ZM183.06 61.485C182.827 61.485 182.71 61.3683 182.71 61.135C182.71 60.9017 182.827 60.785 183.06 60.785C183.293 60.785 183.41 60.9017 183.41 61.135C183.41 61.3683 183.293 61.485 183.06 61.485ZM183.06 62.85C182.827 62.85 182.71 62.7333 182.71 62.5C182.71 62.2667 182.827 62.15 183.06 62.15C183.293 62.15 183.41 62.2667 183.41 62.5C183.41 62.7333 183.293 62.85 183.06 62.85ZM183.06 64.355C182.827 64.355 182.71 64.2383 182.71 64.005C182.71 63.7717 182.827 63.655 183.06 63.655C183.293 63.655 183.41 63.7717 183.41 64.005C183.41 64.2383 183.293 64.355 183.06 64.355ZM183.06 67.155C182.827 67.155 182.71 67.0383 182.71 66.805C182.71 66.5717 182.827 66.455 183.06 66.455C183.293 66.455 183.41 66.5717 183.41 66.805C183.41 67.0383 183.293 67.155 183.06 67.155ZM183.06 68.45C182.827 68.45 182.71 68.3333 182.71 68.1C182.71 67.8667 182.827 67.75 183.06 67.75C183.293 67.75 183.41 67.8667 183.41 68.1C183.41 68.3333 183.293 68.45 183.06 68.45ZM183.06 69.85C182.827 69.85 182.71 69.7333 182.71 69.5C182.71 69.2667 182.827 69.15 183.06 69.15C183.293 69.15 183.41 69.2667 183.41 69.5C183.41 69.7333 183.293 69.85 183.06 69.85ZM183.06 71.25C182.827 71.25 182.71 71.1333 182.71 70.9C182.71 70.6667 182.827 70.55 183.06 70.55C183.293 70.55 183.41 70.6667 183.41 70.9C183.41 71.1333 183.293 71.25 183.06 71.25ZM183.06 56.2C182.827 56.2 182.71 56.0833 182.71 55.85C182.71 55.6167 182.827 55.5 183.06 55.5C183.293 55.5 183.41 55.6167 183.41 55.85C183.41 56.0833 183.293 56.2 183.06 56.2ZM183.06 57.495C182.827 57.495 182.71 57.3783 182.71 57.145C182.71 56.9117 182.827 56.795 183.06 56.795C183.293 56.795 183.41 56.9117 183.41 57.145C183.41 57.3783 183.293 57.495 183.06 57.495ZM183.06 58.825C182.827 58.825 182.71 58.7083 182.71 58.475C182.71 58.2417 182.827 58.125 183.06 58.125C183.293 58.125 183.41 58.2417 183.41 58.475C183.41 58.7083 183.293 58.825 183.06 58.825ZM183.06 60.085C182.827 60.085 182.71 59.9683 182.71 59.735C182.71 59.5017 182.827 59.385 183.06 59.385C183.293 59.385 183.41 59.5017 183.41 59.735C183.41 59.9683 183.293 60.085 183.06 60.085ZM183.06 65.755C182.827 65.755 182.71 65.6383 182.71 65.405C182.71 65.1717 182.827 65.055 183.06 65.055C183.293 65.055 183.41 65.1717 183.41 65.405C183.41 65.6383 183.293 65.755 183.06 65.755ZM183.06 78.32C182.827 78.32 182.71 78.2033 182.71 77.97C182.71 77.7367 182.827 77.62 183.06 77.62C183.293 77.62 183.41 77.7367 183.41 77.97C183.41 78.2033 183.293 78.32 183.06 78.32ZM183.06 79.72C182.827 79.72 182.71 79.6033 182.71 79.37C182.71 79.1367 182.827 79.02 183.06 79.02C183.293 79.02 183.41 79.1367 183.41 79.37C183.41 79.6033 183.293 79.72 183.06 79.72ZM184.11 67.645C183.877 67.645 183.76 67.5283 183.76 67.295C183.76 67.0617 183.877 66.945 184.11 66.945C184.343 66.945 184.46 67.0617 184.46 67.295C184.46 67.5283 184.343 67.645 184.11 67.645ZM185.405 67.645C185.172 67.645 185.055 67.5283 185.055 67.295C185.055 67.0617 185.172 66.945 185.405 66.945C185.638 66.945 185.755 67.0617 185.755 67.295C185.755 67.5283 185.638 67.645 185.405 67.645ZM186.7 67.645C186.467 67.645 186.35 67.5283 186.35 67.295C186.35 67.0617 186.467 66.945 186.7 66.945C186.933 66.945 187.05 67.0617 187.05 67.295C187.05 67.5283 186.933 67.645 186.7 67.645ZM187.995 67.645C187.762 67.645 187.645 67.5283 187.645 67.295C187.645 67.0617 187.762 66.945 187.995 66.945C188.228 66.945 188.345 67.0617 188.345 67.295C188.345 67.5283 188.228 67.645 187.995 67.645ZM189.29 67.645C189.057 67.645 188.94 67.5283 188.94 67.295C188.94 67.0617 189.057 66.945 189.29 66.945C189.523 66.945 189.64 67.0617 189.64 67.295C189.64 67.5283 189.523 67.645 189.29 67.645ZM190.585 67.645C190.352 67.645 190.235 67.5283 190.235 67.295C190.235 67.0617 190.352 66.945 190.585 66.945C190.818 66.945 190.935 67.0617 190.935 67.295C190.935 67.5283 190.818 67.645 190.585 67.645ZM191.88 67.645C191.647 67.645 191.53 67.5283 191.53 67.295C191.53 67.0617 191.647 66.945 191.88 66.945C192.113 66.945 192.23 67.0617 192.23 67.295C192.23 67.5283 192.113 67.645 191.88 67.645ZM193.175 67.645C192.942 67.645 192.825 67.5283 192.825 67.295C192.825 67.0617 192.942 66.945 193.175 66.945C193.408 66.945 193.525 67.0617 193.525 67.295C193.525 67.5283 193.408 67.645 193.175 67.645ZM194.47 67.645C194.237 67.645 194.12 67.5283 194.12 67.295C194.12 67.0617 194.237 66.945 194.47 66.945C194.703 66.945 194.82 67.0617 194.82 67.295C194.82 67.5283 194.703 67.645 194.47 67.645ZM195.765 67.645C195.532 67.645 195.415 67.5283 195.415 67.295C195.415 67.0617 195.532 66.945 195.765 66.945C195.998 66.945 196.115 67.0617 196.115 67.295C196.115 67.5283 195.998 67.645 195.765 67.645ZM197.06 67.645C196.827 67.645 196.71 67.5283 196.71 67.295C196.71 67.0617 196.827 66.945 197.06 66.945C197.293 66.945 197.41 67.0617 197.41 67.295C197.41 67.5283 197.293 67.645 197.06 67.645ZM200.77 72.615C200.537 72.615 200.42 72.4983 200.42 72.265C200.42 72.0317 200.537 71.915 200.77 71.915C201.003 71.915 201.12 72.0317 201.12 72.265C201.12 72.4983 201.003 72.615 200.77 72.615ZM200.77 74.05C200.537 74.05 200.42 73.9333 200.42 73.7C200.42 73.4667 200.537 73.35 200.77 73.35C201.003 73.35 201.12 73.4667 201.12 73.7C201.12 73.9333 201.003 74.05 200.77 74.05ZM200.77 75.485C200.537 75.485 200.42 75.3683 200.42 75.135C200.42 74.9017 200.537 74.785 200.77 74.785C201.003 74.785 201.12 74.9017 201.12 75.135C201.12 75.3683 201.003 75.485 200.77 75.485ZM200.77 76.92C200.537 76.92 200.42 76.8033 200.42 76.57C200.42 76.3367 200.537 76.22 200.77 76.22C201.003 76.22 201.12 76.3367 201.12 76.57C201.12 76.8033 201.003 76.92 200.77 76.92ZM200.77 61.485C200.537 61.485 200.42 61.3683 200.42 61.135C200.42 60.9017 200.537 60.785 200.77 60.785C201.003 60.785 201.12 60.9017 201.12 61.135C201.12 61.3683 201.003 61.485 200.77 61.485ZM200.77 62.85C200.537 62.85 200.42 62.7333 200.42 62.5C200.42 62.2667 200.537 62.15 200.77 62.15C201.003 62.15 201.12 62.2667 201.12 62.5C201.12 62.7333 201.003 62.85 200.77 62.85ZM200.77 64.355C200.537 64.355 200.42 64.2383 200.42 64.005C200.42 63.7717 200.537 63.655 200.77 63.655C201.003 63.655 201.12 63.7717 201.12 64.005C201.12 64.2383 201.003 64.355 200.77 64.355ZM200.77 67.155C200.537 67.155 200.42 67.0383 200.42 66.805C200.42 66.5717 200.537 66.455 200.77 66.455C201.003 66.455 201.12 66.5717 201.12 66.805C201.12 67.0383 201.003 67.155 200.77 67.155ZM200.77 68.45C200.537 68.45 200.42 68.3333 200.42 68.1C200.42 67.8667 200.537 67.75 200.77 67.75C201.003 67.75 201.12 67.8667 201.12 68.1C201.12 68.3333 201.003 68.45 200.77 68.45ZM200.77 69.85C200.537 69.85 200.42 69.7333 200.42 69.5C200.42 69.2667 200.537 69.15 200.77 69.15C201.003 69.15 201.12 69.2667 201.12 69.5C201.12 69.7333 201.003 69.85 200.77 69.85ZM200.77 71.25C200.537 71.25 200.42 71.1333 200.42 70.9C200.42 70.6667 200.537 70.55 200.77 70.55C201.003 70.55 201.12 70.6667 201.12 70.9C201.12 71.1333 201.003 71.25 200.77 71.25ZM200.77 56.2C200.537 56.2 200.42 56.0833 200.42 55.85C200.42 55.6167 200.537 55.5 200.77 55.5C201.003 55.5 201.12 55.6167 201.12 55.85C201.12 56.0833 201.003 56.2 200.77 56.2ZM200.77 57.495C200.537 57.495 200.42 57.3783 200.42 57.145C200.42 56.9117 200.537 56.795 200.77 56.795C201.003 56.795 201.12 56.9117 201.12 57.145C201.12 57.3783 201.003 57.495 200.77 57.495ZM200.77 58.825C200.537 58.825 200.42 58.7083 200.42 58.475C200.42 58.2417 200.537 58.125 200.77 58.125C201.003 58.125 201.12 58.2417 201.12 58.475C201.12 58.7083 201.003 58.825 200.77 58.825ZM200.77 60.085C200.537 60.085 200.42 59.9683 200.42 59.735C200.42 59.5017 200.537 59.385 200.77 59.385C201.003 59.385 201.12 59.5017 201.12 59.735C201.12 59.9683 201.003 60.085 200.77 60.085ZM200.77 65.755C200.537 65.755 200.42 65.6383 200.42 65.405C200.42 65.1717 200.537 65.055 200.77 65.055C201.003 65.055 201.12 65.1717 201.12 65.405C201.12 65.6383 201.003 65.755 200.77 65.755ZM200.77 78.32C200.537 78.32 200.42 78.2033 200.42 77.97C200.42 77.7367 200.537 77.62 200.77 77.62C201.003 77.62 201.12 77.7367 201.12 77.97C201.12 78.2033 201.003 78.32 200.77 78.32ZM200.77 79.72C200.537 79.72 200.42 79.6033 200.42 79.37C200.42 79.1367 200.537 79.02 200.77 79.02C201.003 79.02 201.12 79.1367 201.12 79.37C201.12 79.6033 201.003 79.72 200.77 79.72ZM198.425 67.645C198.192 67.645 198.075 67.5283 198.075 67.295C198.075 67.0617 198.192 66.945 198.425 66.945C198.658 66.945 198.775 67.0617 198.775 67.295C198.775 67.5283 198.658 67.645 198.425 67.645ZM199.72 67.645C199.487 67.645 199.37 67.5283 199.37 67.295C199.37 67.0617 199.487 66.945 199.72 66.945C199.953 66.945 200.07 67.0617 200.07 67.295C200.07 67.5283 199.953 67.645 199.72 67.645ZM208.831 72.615C208.598 72.615 208.481 72.4983 208.481 72.265C208.481 72.0317 208.598 71.915 208.831 71.915C209.065 71.915 209.181 72.0317 209.181 72.265C209.181 72.4983 209.065 72.615 208.831 72.615ZM208.831 74.05C208.598 74.05 208.481 73.9333 208.481 73.7C208.481 73.4667 208.598 73.35 208.831 73.35C209.065 73.35 209.181 73.4667 209.181 73.7C209.181 73.9333 209.065 74.05 208.831 74.05ZM208.831 75.485C208.598 75.485 208.481 75.3683 208.481 75.135C208.481 74.9017 208.598 74.785 208.831 74.785C209.065 74.785 209.181 74.9017 209.181 75.135C209.181 75.3683 209.065 75.485 208.831 75.485ZM208.831 76.92C208.598 76.92 208.481 76.8033 208.481 76.57C208.481 76.3367 208.598 76.22 208.831 76.22C209.065 76.22 209.181 76.3367 209.181 76.57C209.181 76.8033 209.065 76.92 208.831 76.92ZM208.831 61.485C208.598 61.485 208.481 61.3683 208.481 61.135C208.481 60.9017 208.598 60.785 208.831 60.785C209.065 60.785 209.181 60.9017 209.181 61.135C209.181 61.3683 209.065 61.485 208.831 61.485ZM208.831 62.85C208.598 62.85 208.481 62.7333 208.481 62.5C208.481 62.2667 208.598 62.15 208.831 62.15C209.065 62.15 209.181 62.2667 209.181 62.5C209.181 62.7333 209.065 62.85 208.831 62.85ZM208.831 64.355C208.598 64.355 208.481 64.2383 208.481 64.005C208.481 63.7717 208.598 63.655 208.831 63.655C209.065 63.655 209.181 63.7717 209.181 64.005C209.181 64.2383 209.065 64.355 208.831 64.355ZM208.831 67.155C208.598 67.155 208.481 67.0383 208.481 66.805C208.481 66.5717 208.598 66.455 208.831 66.455C209.065 66.455 209.181 66.5717 209.181 66.805C209.181 67.0383 209.065 67.155 208.831 67.155ZM208.831 68.45C208.598 68.45 208.481 68.3333 208.481 68.1C208.481 67.8667 208.598 67.75 208.831 67.75C209.065 67.75 209.181 67.8667 209.181 68.1C209.181 68.3333 209.065 68.45 208.831 68.45ZM208.831 69.85C208.598 69.85 208.481 69.7333 208.481 69.5C208.481 69.2667 208.598 69.15 208.831 69.15C209.065 69.15 209.181 69.2667 209.181 69.5C209.181 69.7333 209.065 69.85 208.831 69.85ZM208.831 71.25C208.598 71.25 208.481 71.1333 208.481 70.9C208.481 70.6667 208.598 70.55 208.831 70.55C209.065 70.55 209.181 70.6667 209.181 70.9C209.181 71.1333 209.065 71.25 208.831 71.25ZM208.831 56.2C208.598 56.2 208.481 56.0833 208.481 55.85C208.481 55.6167 208.598 55.5 208.831 55.5C209.065 55.5 209.181 55.6167 209.181 55.85C209.181 56.0833 209.065 56.2 208.831 56.2ZM208.831 57.495C208.598 57.495 208.481 57.3783 208.481 57.145C208.481 56.9117 208.598 56.795 208.831 56.795C209.065 56.795 209.181 56.9117 209.181 57.145C209.181 57.3783 209.065 57.495 208.831 57.495ZM208.831 58.825C208.598 58.825 208.481 58.7083 208.481 58.475C208.481 58.2417 208.598 58.125 208.831 58.125C209.065 58.125 209.181 58.2417 209.181 58.475C209.181 58.7083 209.065 58.825 208.831 58.825ZM208.831 60.085C208.598 60.085 208.481 59.9683 208.481 59.735C208.481 59.5017 208.598 59.385 208.831 59.385C209.065 59.385 209.181 59.5017 209.181 59.735C209.181 59.9683 209.065 60.085 208.831 60.085ZM208.831 65.755C208.598 65.755 208.481 65.6383 208.481 65.405C208.481 65.1717 208.598 65.055 208.831 65.055C209.065 65.055 209.181 65.1717 209.181 65.405C209.181 65.6383 209.065 65.755 208.831 65.755ZM208.831 78.32C208.598 78.32 208.481 78.2033 208.481 77.97C208.481 77.7367 208.598 77.62 208.831 77.62C209.065 77.62 209.181 77.7367 209.181 77.97C209.181 78.2033 209.065 78.32 208.831 78.32ZM208.831 79.72C208.598 79.72 208.481 79.6033 208.481 79.37C208.481 79.1367 208.598 79.02 208.831 79.02C209.065 79.02 209.181 79.1367 209.181 79.37C209.181 79.6033 209.065 79.72 208.831 79.72ZM210.126 56.165C209.893 56.165 209.776 56.0483 209.776 55.815C209.776 55.5817 209.893 55.465 210.126 55.465C210.36 55.465 210.476 55.5817 210.476 55.815C210.476 56.0483 210.36 56.165 210.126 56.165ZM211.351 56.165C211.118 56.165 211.001 56.0483 211.001 55.815C211.001 55.5817 211.118 55.465 211.351 55.465C211.585 55.465 211.701 55.5817 211.701 55.815C211.701 56.0483 211.585 56.165 211.351 56.165ZM212.576 56.165C212.343 56.165 212.226 56.0483 212.226 55.815C212.226 55.5817 212.343 55.465 212.576 55.465C212.81 55.465 212.926 55.5817 212.926 55.815C212.926 56.0483 212.81 56.165 212.576 56.165ZM213.836 56.165C213.603 56.165 213.486 56.0483 213.486 55.815C213.486 55.5817 213.603 55.465 213.836 55.465C214.07 55.465 214.186 55.5817 214.186 55.815C214.186 56.0483 214.07 56.165 213.836 56.165ZM215.096 56.165C214.863 56.165 214.746 56.0483 214.746 55.815C214.746 55.5817 214.863 55.465 215.096 55.465C215.33 55.465 215.446 55.5817 215.446 55.815C215.446 56.0483 215.33 56.165 215.096 56.165ZM216.321 56.165C216.088 56.165 215.971 56.0483 215.971 55.815C215.971 55.5817 216.088 55.465 216.321 55.465C216.555 55.465 216.671 55.5817 216.671 55.815C216.671 56.0483 216.555 56.165 216.321 56.165ZM217.546 56.165C217.313 56.165 217.196 56.0483 217.196 55.815C217.196 55.5817 217.313 55.465 217.546 55.465C217.78 55.465 217.896 55.5817 217.896 55.815C217.896 56.0483 217.78 56.165 217.546 56.165ZM218.806 56.165C218.573 56.165 218.456 56.0483 218.456 55.815C218.456 55.5817 218.573 55.465 218.806 55.465C219.04 55.465 219.156 55.5817 219.156 55.815C219.156 56.0483 219.04 56.165 218.806 56.165ZM220.031 56.165C219.798 56.165 219.681 56.0483 219.681 55.815C219.681 55.5817 219.798 55.465 220.031 55.465C220.265 55.465 220.381 55.5817 220.381 55.815C220.381 56.0483 220.265 56.165 220.031 56.165ZM221.291 56.165C221.058 56.165 220.941 56.0483 220.941 55.815C220.941 55.5817 221.058 55.465 221.291 55.465C221.525 55.465 221.641 55.5817 221.641 55.815C221.641 56.0483 221.525 56.165 221.291 56.165ZM222.551 56.165C222.318 56.165 222.201 56.0483 222.201 55.815C222.201 55.5817 222.318 55.465 222.551 55.465C222.785 55.465 222.901 55.5817 222.901 55.815C222.901 56.0483 222.785 56.165 222.551 56.165ZM223.776 56.165C223.543 56.165 223.426 56.0483 223.426 55.815C223.426 55.5817 223.543 55.465 223.776 55.465C224.01 55.465 224.126 55.5817 224.126 55.815C224.126 56.0483 224.01 56.165 223.776 56.165ZM209.986 67.75C209.753 67.75 209.636 67.6333 209.636 67.4C209.636 67.1667 209.753 67.05 209.986 67.05C210.22 67.05 210.336 67.1667 210.336 67.4C210.336 67.6333 210.22 67.75 209.986 67.75ZM211.211 67.75C210.978 67.75 210.861 67.6333 210.861 67.4C210.861 67.1667 210.978 67.05 211.211 67.05C211.445 67.05 211.561 67.1667 211.561 67.4C211.561 67.6333 211.445 67.75 211.211 67.75ZM212.436 67.75C212.203 67.75 212.086 67.6333 212.086 67.4C212.086 67.1667 212.203 67.05 212.436 67.05C212.67 67.05 212.786 67.1667 212.786 67.4C212.786 67.6333 212.67 67.75 212.436 67.75ZM213.696 67.75C213.463 67.75 213.346 67.6333 213.346 67.4C213.346 67.1667 213.463 67.05 213.696 67.05C213.93 67.05 214.046 67.1667 214.046 67.4C214.046 67.6333 213.93 67.75 213.696 67.75ZM214.956 67.75C214.723 67.75 214.606 67.6333 214.606 67.4C214.606 67.1667 214.723 67.05 214.956 67.05C215.19 67.05 215.306 67.1667 215.306 67.4C215.306 67.6333 215.19 67.75 214.956 67.75ZM216.181 67.75C215.948 67.75 215.831 67.6333 215.831 67.4C215.831 67.1667 215.948 67.05 216.181 67.05C216.415 67.05 216.531 67.1667 216.531 67.4C216.531 67.6333 216.415 67.75 216.181 67.75ZM217.406 67.75C217.173 67.75 217.056 67.6333 217.056 67.4C217.056 67.1667 217.173 67.05 217.406 67.05C217.64 67.05 217.756 67.1667 217.756 67.4C217.756 67.6333 217.64 67.75 217.406 67.75ZM218.666 67.75C218.433 67.75 218.316 67.6333 218.316 67.4C218.316 67.1667 218.433 67.05 218.666 67.05C218.9 67.05 219.016 67.1667 219.016 67.4C219.016 67.6333 218.9 67.75 218.666 67.75ZM219.891 67.75C219.658 67.75 219.541 67.6333 219.541 67.4C219.541 67.1667 219.658 67.05 219.891 67.05C220.125 67.05 220.241 67.1667 220.241 67.4C220.241 67.6333 220.125 67.75 219.891 67.75ZM221.151 67.75C220.918 67.75 220.801 67.6333 220.801 67.4C220.801 67.1667 220.918 67.05 221.151 67.05C221.385 67.05 221.501 67.1667 221.501 67.4C221.501 67.6333 221.385 67.75 221.151 67.75ZM222.411 67.75C222.178 67.75 222.061 67.6333 222.061 67.4C222.061 67.1667 222.178 67.05 222.411 67.05C222.645 67.05 222.761 67.1667 222.761 67.4C222.761 67.6333 222.645 67.75 222.411 67.75ZM210.056 79.755C209.823 79.755 209.706 79.6383 209.706 79.405C209.706 79.1717 209.823 79.055 210.056 79.055C210.29 79.055 210.406 79.1717 210.406 79.405C210.406 79.6383 210.29 79.755 210.056 79.755ZM211.281 79.755C211.048 79.755 210.931 79.6383 210.931 79.405C210.931 79.1717 211.048 79.055 211.281 79.055C211.515 79.055 211.631 79.1717 211.631 79.405C211.631 79.6383 211.515 79.755 211.281 79.755ZM212.506 79.755C212.273 79.755 212.156 79.6383 212.156 79.405C212.156 79.1717 212.273 79.055 212.506 79.055C212.74 79.055 212.856 79.1717 212.856 79.405C212.856 79.6383 212.74 79.755 212.506 79.755ZM213.766 79.755C213.533 79.755 213.416 79.6383 213.416 79.405C213.416 79.1717 213.533 79.055 213.766 79.055C214 79.055 214.116 79.1717 214.116 79.405C214.116 79.6383 214 79.755 213.766 79.755ZM215.026 79.755C214.793 79.755 214.676 79.6383 214.676 79.405C214.676 79.1717 214.793 79.055 215.026 79.055C215.26 79.055 215.376 79.1717 215.376 79.405C215.376 79.6383 215.26 79.755 215.026 79.755ZM216.251 79.755C216.018 79.755 215.901 79.6383 215.901 79.405C215.901 79.1717 216.018 79.055 216.251 79.055C216.485 79.055 216.601 79.1717 216.601 79.405C216.601 79.6383 216.485 79.755 216.251 79.755ZM217.476 79.755C217.243 79.755 217.126 79.6383 217.126 79.405C217.126 79.1717 217.243 79.055 217.476 79.055C217.71 79.055 217.826 79.1717 217.826 79.405C217.826 79.6383 217.71 79.755 217.476 79.755ZM218.736 79.755C218.503 79.755 218.386 79.6383 218.386 79.405C218.386 79.1717 218.503 79.055 218.736 79.055C218.97 79.055 219.086 79.1717 219.086 79.405C219.086 79.6383 218.97 79.755 218.736 79.755ZM219.961 79.755C219.728 79.755 219.611 79.6383 219.611 79.405C219.611 79.1717 219.728 79.055 219.961 79.055C220.195 79.055 220.311 79.1717 220.311 79.405C220.311 79.6383 220.195 79.755 219.961 79.755ZM221.221 79.755C220.988 79.755 220.871 79.6383 220.871 79.405C220.871 79.1717 220.988 79.055 221.221 79.055C221.455 79.055 221.571 79.1717 221.571 79.405C221.571 79.6383 221.455 79.755 221.221 79.755ZM222.481 79.755C222.248 79.755 222.131 79.6383 222.131 79.405C222.131 79.1717 222.248 79.055 222.481 79.055C222.715 79.055 222.831 79.1717 222.831 79.405C222.831 79.6383 222.715 79.755 222.481 79.755ZM223.706 79.755C223.473 79.755 223.356 79.6383 223.356 79.405C223.356 79.1717 223.473 79.055 223.706 79.055C223.94 79.055 224.056 79.1717 224.056 79.405C224.056 79.6383 223.94 79.755 223.706 79.755ZM230.433 72.615C230.2 72.615 230.083 72.4983 230.083 72.265C230.083 72.0317 230.2 71.915 230.433 71.915C230.666 71.915 230.783 72.0317 230.783 72.265C230.783 72.4983 230.666 72.615 230.433 72.615ZM230.433 74.05C230.2 74.05 230.083 73.9333 230.083 73.7C230.083 73.4667 230.2 73.35 230.433 73.35C230.666 73.35 230.783 73.4667 230.783 73.7C230.783 73.9333 230.666 74.05 230.433 74.05ZM230.433 75.485C230.2 75.485 230.083 75.3683 230.083 75.135C230.083 74.9017 230.2 74.785 230.433 74.785C230.666 74.785 230.783 74.9017 230.783 75.135C230.783 75.3683 230.666 75.485 230.433 75.485ZM230.433 76.92C230.2 76.92 230.083 76.8033 230.083 76.57C230.083 76.3367 230.2 76.22 230.433 76.22C230.666 76.22 230.783 76.3367 230.783 76.57C230.783 76.8033 230.666 76.92 230.433 76.92ZM230.433 61.485C230.2 61.485 230.083 61.3683 230.083 61.135C230.083 60.9017 230.2 60.785 230.433 60.785C230.666 60.785 230.783 60.9017 230.783 61.135C230.783 61.3683 230.666 61.485 230.433 61.485ZM230.433 62.85C230.2 62.85 230.083 62.7333 230.083 62.5C230.083 62.2667 230.2 62.15 230.433 62.15C230.666 62.15 230.783 62.2667 230.783 62.5C230.783 62.7333 230.666 62.85 230.433 62.85ZM230.433 64.355C230.2 64.355 230.083 64.2383 230.083 64.005C230.083 63.7717 230.2 63.655 230.433 63.655C230.666 63.655 230.783 63.7717 230.783 64.005C230.783 64.2383 230.666 64.355 230.433 64.355ZM230.433 67.155C230.2 67.155 230.083 67.0383 230.083 66.805C230.083 66.5717 230.2 66.455 230.433 66.455C230.666 66.455 230.783 66.5717 230.783 66.805C230.783 67.0383 230.666 67.155 230.433 67.155ZM230.433 68.45C230.2 68.45 230.083 68.3333 230.083 68.1C230.083 67.8667 230.2 67.75 230.433 67.75C230.666 67.75 230.783 67.8667 230.783 68.1C230.783 68.3333 230.666 68.45 230.433 68.45ZM230.433 69.85C230.2 69.85 230.083 69.7333 230.083 69.5C230.083 69.2667 230.2 69.15 230.433 69.15C230.666 69.15 230.783 69.2667 230.783 69.5C230.783 69.7333 230.666 69.85 230.433 69.85ZM230.433 71.25C230.2 71.25 230.083 71.1333 230.083 70.9C230.083 70.6667 230.2 70.55 230.433 70.55C230.666 70.55 230.783 70.6667 230.783 70.9C230.783 71.1333 230.666 71.25 230.433 71.25ZM230.433 56.2C230.2 56.2 230.083 56.0833 230.083 55.85C230.083 55.6167 230.2 55.5 230.433 55.5C230.666 55.5 230.783 55.6167 230.783 55.85C230.783 56.0833 230.666 56.2 230.433 56.2ZM230.433 57.495C230.2 57.495 230.083 57.3783 230.083 57.145C230.083 56.9117 230.2 56.795 230.433 56.795C230.666 56.795 230.783 56.9117 230.783 57.145C230.783 57.3783 230.666 57.495 230.433 57.495ZM230.433 58.825C230.2 58.825 230.083 58.7083 230.083 58.475C230.083 58.2417 230.2 58.125 230.433 58.125C230.666 58.125 230.783 58.2417 230.783 58.475C230.783 58.7083 230.666 58.825 230.433 58.825ZM230.433 60.085C230.2 60.085 230.083 59.9683 230.083 59.735C230.083 59.5017 230.2 59.385 230.433 59.385C230.666 59.385 230.783 59.5017 230.783 59.735C230.783 59.9683 230.666 60.085 230.433 60.085ZM230.433 65.755C230.2 65.755 230.083 65.6383 230.083 65.405C230.083 65.1717 230.2 65.055 230.433 65.055C230.666 65.055 230.783 65.1717 230.783 65.405C230.783 65.6383 230.666 65.755 230.433 65.755ZM230.433 78.32C230.2 78.32 230.083 78.2033 230.083 77.97C230.083 77.7367 230.2 77.62 230.433 77.62C230.666 77.62 230.783 77.7367 230.783 77.97C230.783 78.2033 230.666 78.32 230.433 78.32ZM230.433 79.72C230.2 79.72 230.083 79.6033 230.083 79.37C230.083 79.1367 230.2 79.02 230.433 79.02C230.666 79.02 230.783 79.1367 230.783 79.37C230.783 79.6033 230.666 79.72 230.433 79.72ZM231.588 56.095C231.355 56.095 231.238 55.9783 231.238 55.745C231.238 55.5117 231.355 55.395 231.588 55.395C231.821 55.395 231.938 55.5117 231.938 55.745C231.938 55.9783 231.821 56.095 231.588 56.095ZM232.813 56.095C232.58 56.095 232.463 55.9783 232.463 55.745C232.463 55.5117 232.58 55.395 232.813 55.395C233.046 55.395 233.163 55.5117 233.163 55.745C233.163 55.9783 233.046 56.095 232.813 56.095ZM234.038 56.095C233.805 56.095 233.688 55.9783 233.688 55.745C233.688 55.5117 233.805 55.395 234.038 55.395C234.271 55.395 234.388 55.5117 234.388 55.745C234.388 55.9783 234.271 56.095 234.038 56.095ZM235.263 56.095C235.03 56.095 234.913 55.9783 234.913 55.745C234.913 55.5117 235.03 55.395 235.263 55.395C235.496 55.395 235.613 55.5117 235.613 55.745C235.613 55.9783 235.496 56.095 235.263 56.095ZM236.488 56.06C236.255 56.06 236.138 55.9433 236.138 55.71C236.138 55.4767 236.255 55.36 236.488 55.36C236.721 55.36 236.838 55.4767 236.838 55.71C236.838 55.9433 236.721 56.06 236.488 56.06ZM237.713 56.06C237.48 56.06 237.363 55.9433 237.363 55.71C237.363 55.4767 237.48 55.36 237.713 55.36C237.946 55.36 238.063 55.4767 238.063 55.71C238.063 55.9433 237.946 56.06 237.713 56.06ZM238.938 56.06C238.705 56.06 238.588 55.9433 238.588 55.71C238.588 55.4767 238.705 55.36 238.938 55.36C239.171 55.36 239.288 55.4767 239.288 55.71C239.288 55.9433 239.171 56.06 238.938 56.06ZM240.163 56.095C239.93 56.095 239.813 55.9783 239.813 55.745C239.813 55.5117 239.93 55.395 240.163 55.395C240.396 55.395 240.513 55.5117 240.513 55.745C240.513 55.9783 240.396 56.095 240.163 56.095ZM241.388 56.235C241.155 56.235 241.038 56.1183 241.038 55.885C241.038 55.6517 241.155 55.535 241.388 55.535C241.621 55.535 241.738 55.6517 241.738 55.885C241.738 56.1183 241.621 56.235 241.388 56.235ZM231.588 70.165C231.355 70.165 231.238 70.0483 231.238 69.815C231.238 69.5817 231.355 69.465 231.588 69.465C231.821 69.465 231.938 69.5817 231.938 69.815C231.938 70.0483 231.821 70.165 231.588 70.165ZM232.813 70.165C232.58 70.165 232.463 70.0483 232.463 69.815C232.463 69.5817 232.58 69.465 232.813 69.465C233.046 69.465 233.163 69.5817 233.163 69.815C233.163 70.0483 233.046 70.165 232.813 70.165ZM234.038 70.165C233.805 70.165 233.688 70.0483 233.688 69.815C233.688 69.5817 233.805 69.465 234.038 69.465C234.271 69.465 234.388 69.5817 234.388 69.815C234.388 70.0483 234.271 70.165 234.038 70.165ZM235.263 70.165C235.03 70.165 234.913 70.0483 234.913 69.815C234.913 69.5817 235.03 69.465 235.263 69.465C235.496 69.465 235.613 69.5817 235.613 69.815C235.613 70.0483 235.496 70.165 235.263 70.165ZM236.488 70.165C236.255 70.165 236.138 70.0483 236.138 69.815C236.138 69.5817 236.255 69.465 236.488 69.465C236.721 69.465 236.838 69.5817 236.838 69.815C236.838 70.0483 236.721 70.165 236.488 70.165ZM237.713 70.165C237.48 70.165 237.363 70.0483 237.363 69.815C237.363 69.5817 237.48 69.465 237.713 69.465C237.946 69.465 238.063 69.5817 238.063 69.815C238.063 70.0483 237.946 70.165 237.713 70.165ZM238.973 70.165C238.74 70.165 238.623 70.0483 238.623 69.815C238.623 69.5817 238.74 69.465 238.973 69.465C239.206 69.465 239.323 69.5817 239.323 69.815C239.323 70.0483 239.206 70.165 238.973 70.165ZM240.233 70.165C240 70.165 239.883 70.0483 239.883 69.815C239.883 69.5817 240 69.465 240.233 69.465C240.466 69.465 240.583 69.5817 240.583 69.815C240.583 70.0483 240.466 70.165 240.233 70.165ZM241.458 70.06C241.225 70.06 241.108 69.9433 241.108 69.71C241.108 69.4767 241.225 69.36 241.458 69.36C241.691 69.36 241.808 69.4767 241.808 69.71C241.808 69.9433 241.691 70.06 241.458 70.06ZM242.543 56.62C242.31 56.62 242.193 56.5033 242.193 56.27C242.193 56.0367 242.31 55.92 242.543 55.92C242.776 55.92 242.893 56.0367 242.893 56.27C242.893 56.5033 242.776 56.62 242.543 56.62ZM242.613 68.975C242.846 68.975 242.963 69.0917 242.963 69.325C242.963 69.5583 242.846 69.675 242.613 69.675C242.38 69.675 242.263 69.5583 242.263 69.325C242.263 69.0917 242.38 68.975 242.613 68.975ZM243.593 56.55C243.826 56.55 243.943 56.6667 243.943 56.9C243.943 57.1333 243.826 57.25 243.593 57.25C243.36 57.25 243.243 57.1333 243.243 56.9C243.243 56.6667 243.36 56.55 243.593 56.55ZM244.573 57.425C244.806 57.425 244.923 57.5417 244.923 57.775C244.923 58.0083 244.806 58.125 244.573 58.125C244.34 58.125 244.223 58.0083 244.223 57.775C244.223 57.5417 244.34 57.425 244.573 57.425ZM245.343 58.51C245.576 58.51 245.693 58.6267 245.693 58.86C245.693 59.0933 245.576 59.21 245.343 59.21C245.11 59.21 244.993 59.0933 244.993 58.86C244.993 58.6267 245.11 58.51 245.343 58.51ZM245.973 59.735C246.206 59.735 246.323 59.8517 246.323 60.085C246.323 60.3183 246.206 60.435 245.973 60.435C245.74 60.435 245.623 60.3183 245.623 60.085C245.623 59.8517 245.74 59.735 245.973 59.735ZM246.323 61.065C246.556 61.065 246.673 61.1817 246.673 61.415C246.673 61.6483 246.556 61.765 246.323 61.765C246.09 61.765 245.973 61.6483 245.973 61.415C245.973 61.1817 246.09 61.065 246.323 61.065ZM246.498 62.465C246.731 62.465 246.848 62.5817 246.848 62.815C246.848 63.0483 246.731 63.165 246.498 63.165C246.265 63.165 246.148 63.0483 246.148 62.815C246.148 62.5817 246.265 62.465 246.498 62.465ZM246.323 63.865C246.556 63.865 246.673 63.9817 246.673 64.215C246.673 64.4483 246.556 64.565 246.323 64.565C246.09 64.565 245.973 64.4483 245.973 64.215C245.973 63.9817 246.09 63.865 246.323 63.865ZM245.973 65.195C246.206 65.195 246.323 65.3117 246.323 65.545C246.323 65.7783 246.206 65.895 245.973 65.895C245.74 65.895 245.623 65.7783 245.623 65.545C245.623 65.3117 245.74 65.195 245.973 65.195ZM245.413 66.42C245.646 66.42 245.763 66.5367 245.763 66.77C245.763 67.0033 245.646 67.12 245.413 67.12C245.18 67.12 245.063 67.0033 245.063 66.77C245.063 66.5367 245.18 66.42 245.413 66.42ZM244.608 67.47C244.841 67.47 244.958 67.5867 244.958 67.82C244.958 68.0533 244.841 68.17 244.608 68.17C244.375 68.17 244.258 68.0533 244.258 67.82C244.258 67.5867 244.375 67.47 244.608 67.47ZM243.698 68.31C243.931 68.31 244.048 68.4267 244.048 68.66C244.048 68.8933 243.931 69.01 243.698 69.01C243.465 69.01 243.348 68.8933 243.348 68.66C243.348 68.4267 243.465 68.31 243.698 68.31ZM241.388 72.3C241.155 72.3 241.038 72.1833 241.038 71.95C241.038 71.7167 241.155 71.6 241.388 71.6C241.621 71.6 241.738 71.7167 241.738 71.95C241.738 72.1833 241.621 72.3 241.388 72.3ZM242.088 73.42C241.855 73.42 241.738 73.3033 241.738 73.07C241.738 72.8367 241.855 72.72 242.088 72.72C242.321 72.72 242.438 72.8367 242.438 73.07C242.438 73.3033 242.321 73.42 242.088 73.42ZM244.293 76.78C244.06 76.78 243.943 76.6633 243.943 76.43C243.943 76.1967 244.06 76.08 244.293 76.08C244.526 76.08 244.643 76.1967 244.643 76.43C244.643 76.6633 244.526 76.78 244.293 76.78ZM245.028 77.9C244.795 77.9 244.678 77.7833 244.678 77.55C244.678 77.3167 244.795 77.2 245.028 77.2C245.261 77.2 245.378 77.3167 245.378 77.55C245.378 77.7833 245.261 77.9 245.028 77.9ZM242.858 74.54C242.625 74.54 242.508 74.4233 242.508 74.19C242.508 73.9567 242.625 73.84 242.858 73.84C243.091 73.84 243.208 73.9567 243.208 74.19C243.208 74.4233 243.091 74.54 242.858 74.54ZM243.558 75.66C243.325 75.66 243.208 75.5433 243.208 75.31C243.208 75.0767 243.325 74.96 243.558 74.96C243.791 74.96 243.908 75.0767 243.908 75.31C243.908 75.5433 243.791 75.66 243.558 75.66ZM245.728 79.02C245.495 79.02 245.378 78.9033 245.378 78.67C245.378 78.4367 245.495 78.32 245.728 78.32C245.961 78.32 246.078 78.4367 246.078 78.67C246.078 78.9033 245.961 79.02 245.728 79.02ZM246.498 80.14C246.265 80.14 246.148 80.0233 246.148 79.79C246.148 79.5567 246.265 79.44 246.498 79.44C246.731 79.44 246.848 79.5567 246.848 79.79C246.848 80.0233 246.731 80.14 246.498 80.14ZM240.583 71.25C240.35 71.25 240.233 71.1333 240.233 70.9C240.233 70.6667 240.35 70.55 240.583 70.55C240.816 70.55 240.933 70.6667 240.933 70.9C240.933 71.1333 240.816 71.25 240.583 71.25ZM263.311 55.92C263.078 55.92 262.961 55.8033 262.961 55.57C262.961 55.3367 263.078 55.22 263.311 55.22C263.544 55.22 263.661 55.3367 263.661 55.57C263.661 55.8033 263.544 55.92 263.311 55.92ZM261.876 55.92C261.643 55.92 261.526 55.8033 261.526 55.57C261.526 55.3367 261.643 55.22 261.876 55.22C262.109 55.22 262.226 55.3367 262.226 55.57C262.226 55.8033 262.109 55.92 261.876 55.92ZM260.476 56.13C260.243 56.13 260.126 56.0133 260.126 55.78C260.126 55.5467 260.243 55.43 260.476 55.43C260.709 55.43 260.826 55.5467 260.826 55.78C260.826 56.0133 260.709 56.13 260.476 56.13ZM259.076 56.515C258.843 56.515 258.726 56.3983 258.726 56.165C258.726 55.9317 258.843 55.815 259.076 55.815C259.309 55.815 259.426 55.9317 259.426 56.165C259.426 56.3983 259.309 56.515 259.076 56.515ZM257.746 57.075C257.513 57.075 257.396 56.9583 257.396 56.725C257.396 56.4917 257.513 56.375 257.746 56.375C257.979 56.375 258.096 56.4917 258.096 56.725C258.096 56.9583 257.979 57.075 257.746 57.075ZM256.451 57.88C256.218 57.88 256.101 57.7633 256.101 57.53C256.101 57.2967 256.218 57.18 256.451 57.18C256.684 57.18 256.801 57.2967 256.801 57.53C256.801 57.7633 256.684 57.88 256.451 57.88ZM255.296 58.86C255.063 58.86 254.946 58.7433 254.946 58.51C254.946 58.2767 255.063 58.16 255.296 58.16C255.529 58.16 255.646 58.2767 255.646 58.51C255.646 58.7433 255.529 58.86 255.296 58.86ZM254.281 59.98C254.048 59.98 253.931 59.8633 253.931 59.63C253.931 59.3967 254.048 59.28 254.281 59.28C254.514 59.28 254.631 59.3967 254.631 59.63C254.631 59.8633 254.514 59.98 254.281 59.98ZM253.441 61.17C253.208 61.17 253.091 61.0533 253.091 60.82C253.091 60.5867 253.208 60.47 253.441 60.47C253.674 60.47 253.791 60.5867 253.791 60.82C253.791 61.0533 253.674 61.17 253.441 61.17ZM252.741 62.43C252.508 62.43 252.391 62.3133 252.391 62.08C252.391 61.8467 252.508 61.73 252.741 61.73C252.974 61.73 253.091 61.8467 253.091 62.08C253.091 62.3133 252.974 62.43 252.741 62.43ZM252.216 63.83C251.983 63.83 251.866 63.7133 251.866 63.48C251.866 63.2467 251.983 63.13 252.216 63.13C252.449 63.13 252.566 63.2467 252.566 63.48C252.566 63.7133 252.449 63.83 252.216 63.83ZM251.831 65.23C251.598 65.23 251.481 65.1133 251.481 64.88C251.481 64.6467 251.598 64.53 251.831 64.53C252.064 64.53 252.181 64.6467 252.181 64.88C252.181 65.1133 252.064 65.23 251.831 65.23ZM251.621 66.665C251.388 66.665 251.271 66.5483 251.271 66.315C251.271 66.0817 251.388 65.965 251.621 65.965C251.854 65.965 251.971 66.0817 251.971 66.315C251.971 66.5483 251.854 66.665 251.621 66.665ZM251.586 68.17C251.353 68.17 251.236 68.0533 251.236 67.82C251.236 67.5867 251.353 67.47 251.586 67.47C251.819 67.47 251.936 67.5867 251.936 67.82C251.936 68.0533 251.819 68.17 251.586 68.17ZM251.691 69.64C251.458 69.64 251.341 69.5233 251.341 69.29C251.341 69.0567 251.458 68.94 251.691 68.94C251.924 68.94 252.041 69.0567 252.041 69.29C252.041 69.5233 251.924 69.64 251.691 69.64ZM251.971 71.145C251.738 71.145 251.621 71.0283 251.621 70.795C251.621 70.5617 251.738 70.445 251.971 70.445C252.204 70.445 252.321 70.5617 252.321 70.795C252.321 71.0283 252.204 71.145 251.971 71.145ZM252.461 72.545C252.228 72.545 252.111 72.4283 252.111 72.195C252.111 71.9617 252.228 71.845 252.461 71.845C252.694 71.845 252.811 71.9617 252.811 72.195C252.811 72.4283 252.694 72.545 252.461 72.545ZM253.056 73.84C252.823 73.84 252.706 73.7233 252.706 73.49C252.706 73.2567 252.823 73.14 253.056 73.14C253.289 73.14 253.406 73.2567 253.406 73.49C253.406 73.7233 253.289 73.84 253.056 73.84ZM253.756 75.065C253.523 75.065 253.406 74.9483 253.406 74.715C253.406 74.4817 253.523 74.365 253.756 74.365C253.989 74.365 254.106 74.4817 254.106 74.715C254.106 74.9483 253.989 75.065 253.756 75.065ZM254.666 76.185C254.433 76.185 254.316 76.0683 254.316 75.835C254.316 75.6017 254.433 75.485 254.666 75.485C254.899 75.485 255.016 75.6017 255.016 75.835C255.016 76.0683 254.899 76.185 254.666 76.185ZM255.681 77.2C255.448 77.2 255.331 77.0833 255.331 76.85C255.331 76.6167 255.448 76.5 255.681 76.5C255.914 76.5 256.031 76.6167 256.031 76.85C256.031 77.0833 255.914 77.2 255.681 77.2ZM256.766 78.075C256.533 78.075 256.416 77.9583 256.416 77.725C256.416 77.4917 256.533 77.375 256.766 77.375C256.999 77.375 257.116 77.4917 257.116 77.725C257.116 77.9583 256.999 78.075 256.766 78.075ZM257.956 78.81C257.723 78.81 257.606 78.6933 257.606 78.46C257.606 78.2267 257.723 78.11 257.956 78.11C258.189 78.11 258.306 78.2267 258.306 78.46C258.306 78.6933 258.189 78.81 257.956 78.81ZM259.321 79.44C259.088 79.44 258.971 79.3233 258.971 79.09C258.971 78.8567 259.088 78.74 259.321 78.74C259.554 78.74 259.671 78.8567 259.671 79.09C259.671 79.3233 259.554 79.44 259.321 79.44ZM260.581 79.825C260.348 79.825 260.231 79.7083 260.231 79.475C260.231 79.2417 260.348 79.125 260.581 79.125C260.814 79.125 260.931 79.2417 260.931 79.475C260.931 79.7083 260.814 79.825 260.581 79.825ZM261.911 80C261.678 80 261.561 79.8833 261.561 79.65C261.561 79.4167 261.678 79.3 261.911 79.3C262.144 79.3 262.261 79.4167 262.261 79.65C262.261 79.8833 262.144 80 261.911 80ZM263.241 80C263.008 80 262.891 79.8833 262.891 79.65C262.891 79.4167 263.008 79.3 263.241 79.3C263.474 79.3 263.591 79.4167 263.591 79.65C263.591 79.8833 263.474 80 263.241 80ZM264.571 79.825C264.338 79.825 264.221 79.7083 264.221 79.475C264.221 79.2417 264.338 79.125 264.571 79.125C264.804 79.125 264.921 79.2417 264.921 79.475C264.921 79.7083 264.804 79.825 264.571 79.825ZM265.971 79.44C265.738 79.44 265.621 79.3233 265.621 79.09C265.621 78.8567 265.738 78.74 265.971 78.74C266.204 78.74 266.321 78.8567 266.321 79.09C266.321 79.3233 266.204 79.44 265.971 79.44ZM267.301 78.88C267.068 78.88 266.951 78.7633 266.951 78.53C266.951 78.2967 267.068 78.18 267.301 78.18C267.534 78.18 267.651 78.2967 267.651 78.53C267.651 78.7633 267.534 78.88 267.301 78.88ZM268.491 78.145C268.258 78.145 268.141 78.0283 268.141 77.795C268.141 77.5617 268.258 77.445 268.491 77.445C268.724 77.445 268.841 77.5617 268.841 77.795C268.841 78.0283 268.724 78.145 268.491 78.145ZM269.576 77.27C269.343 77.27 269.226 77.1533 269.226 76.92C269.226 76.6867 269.343 76.57 269.576 76.57C269.809 76.57 269.926 76.6867 269.926 76.92C269.926 77.1533 269.809 77.27 269.576 77.27ZM270.591 76.255C270.358 76.255 270.241 76.1383 270.241 75.905C270.241 75.6717 270.358 75.555 270.591 75.555C270.824 75.555 270.941 75.6717 270.941 75.905C270.941 76.1383 270.824 76.255 270.591 76.255ZM271.501 75.135C271.268 75.135 271.151 75.0183 271.151 74.785C271.151 74.5517 271.268 74.435 271.501 74.435C271.734 74.435 271.851 74.5517 271.851 74.785C271.851 75.0183 271.734 75.135 271.501 75.135ZM272.201 73.91C271.968 73.91 271.851 73.7933 271.851 73.56C271.851 73.3267 271.968 73.21 272.201 73.21C272.434 73.21 272.551 73.3267 272.551 73.56C272.551 73.7933 272.434 73.91 272.201 73.91ZM272.796 72.615C272.563 72.615 272.446 72.4983 272.446 72.265C272.446 72.0317 272.563 71.915 272.796 71.915C273.029 71.915 273.146 72.0317 273.146 72.265C273.146 72.4983 273.029 72.615 272.796 72.615ZM273.286 71.215C273.053 71.215 272.936 71.0983 272.936 70.865C272.936 70.6317 273.053 70.515 273.286 70.515C273.519 70.515 273.636 70.6317 273.636 70.865C273.636 71.0983 273.519 71.215 273.286 71.215ZM273.566 69.71C273.333 69.71 273.216 69.5933 273.216 69.36C273.216 69.1267 273.333 69.01 273.566 69.01C273.799 69.01 273.916 69.1267 273.916 69.36C273.916 69.5933 273.799 69.71 273.566 69.71ZM273.671 68.24C273.438 68.24 273.321 68.1233 273.321 67.89C273.321 67.6567 273.438 67.54 273.671 67.54C273.904 67.54 274.021 67.6567 274.021 67.89C274.021 68.1233 273.904 68.24 273.671 68.24ZM273.636 66.735C273.403 66.735 273.286 66.6183 273.286 66.385C273.286 66.1517 273.403 66.035 273.636 66.035C273.869 66.035 273.986 66.1517 273.986 66.385C273.986 66.6183 273.869 66.735 273.636 66.735ZM273.426 65.3C273.193 65.3 273.076 65.1833 273.076 64.95C273.076 64.7167 273.193 64.6 273.426 64.6C273.659 64.6 273.776 64.7167 273.776 64.95C273.776 65.1833 273.659 65.3 273.426 65.3ZM273.041 63.9C272.808 63.9 272.691 63.7833 272.691 63.55C272.691 63.3167 272.808 63.2 273.041 63.2C273.274 63.2 273.391 63.3167 273.391 63.55C273.391 63.7833 273.274 63.9 273.041 63.9ZM272.516 62.5C272.283 62.5 272.166 62.3833 272.166 62.15C272.166 61.9167 272.283 61.8 272.516 61.8C272.749 61.8 272.866 61.9167 272.866 62.15C272.866 62.3833 272.749 62.5 272.516 62.5ZM271.816 61.24C271.583 61.24 271.466 61.1233 271.466 60.89C271.466 60.6567 271.583 60.54 271.816 60.54C272.049 60.54 272.166 60.6567 272.166 60.89C272.166 61.1233 272.049 61.24 271.816 61.24ZM270.976 60.05C270.743 60.05 270.626 59.9333 270.626 59.7C270.626 59.4667 270.743 59.35 270.976 59.35C271.209 59.35 271.326 59.4667 271.326 59.7C271.326 59.9333 271.209 60.05 270.976 60.05ZM269.926 58.86C269.693 58.86 269.576 58.7433 269.576 58.51C269.576 58.2767 269.693 58.16 269.926 58.16C270.159 58.16 270.276 58.2767 270.276 58.51C270.276 58.7433 270.159 58.86 269.926 58.86ZM268.771 57.88C268.538 57.88 268.421 57.7633 268.421 57.53C268.421 57.2967 268.538 57.18 268.771 57.18C269.004 57.18 269.121 57.2967 269.121 57.53C269.121 57.7633 269.004 57.88 268.771 57.88ZM267.476 57.075C267.243 57.075 267.126 56.9583 267.126 56.725C267.126 56.4917 267.243 56.375 267.476 56.375C267.709 56.375 267.826 56.4917 267.826 56.725C267.826 56.9583 267.709 57.075 267.476 57.075ZM266.146 56.515C265.913 56.515 265.796 56.3983 265.796 56.165C265.796 55.9317 265.913 55.815 266.146 55.815C266.379 55.815 266.496 55.9317 266.496 56.165C266.496 56.3983 266.379 56.515 266.146 56.515ZM264.711 56.095C264.478 56.095 264.361 55.9783 264.361 55.745C264.361 55.5117 264.478 55.395 264.711 55.395C264.944 55.395 265.061 55.5117 265.061 55.745C265.061 55.9783 264.944 56.095 264.711 56.095Z" fill="white"/>
<path d="M279.749 72.72C279.516 72.72 279.399 72.6033 279.399 72.37C279.399 72.1367 279.516 72.02 279.749 72.02C279.983 72.02 280.099 72.1367 280.099 72.37C280.099 72.6033 279.983 72.72 279.749 72.72ZM279.749 74.155C279.516 74.155 279.399 74.0383 279.399 73.805C279.399 73.5717 279.516 73.455 279.749 73.455C279.983 73.455 280.099 73.5717 280.099 73.805C280.099 74.0383 279.983 74.155 279.749 74.155ZM279.749 75.59C279.516 75.59 279.399 75.4733 279.399 75.24C279.399 75.0067 279.516 74.89 279.749 74.89C279.983 74.89 280.099 75.0067 280.099 75.24C280.099 75.4733 279.983 75.59 279.749 75.59ZM279.749 77.025C279.516 77.025 279.399 76.9083 279.399 76.675C279.399 76.4417 279.516 76.325 279.749 76.325C279.983 76.325 280.099 76.4417 280.099 76.675C280.099 76.9083 279.983 77.025 279.749 77.025ZM279.749 61.59C279.516 61.59 279.399 61.4733 279.399 61.24C279.399 61.0067 279.516 60.89 279.749 60.89C279.983 60.89 280.099 61.0067 280.099 61.24C280.099 61.4733 279.983 61.59 279.749 61.59ZM279.749 62.955C279.516 62.955 279.399 62.8383 279.399 62.605C279.399 62.3717 279.516 62.255 279.749 62.255C279.983 62.255 280.099 62.3717 280.099 62.605C280.099 62.8383 279.983 62.955 279.749 62.955ZM279.749 64.46C279.516 64.46 279.399 64.3433 279.399 64.11C279.399 63.8767 279.516 63.76 279.749 63.76C279.983 63.76 280.099 63.8767 280.099 64.11C280.099 64.3433 279.983 64.46 279.749 64.46ZM279.749 67.26C279.516 67.26 279.399 67.1433 279.399 66.91C279.399 66.6767 279.516 66.56 279.749 66.56C279.983 66.56 280.099 66.6767 280.099 66.91C280.099 67.1433 279.983 67.26 279.749 67.26ZM279.749 68.555C279.516 68.555 279.399 68.4383 279.399 68.205C279.399 67.9717 279.516 67.855 279.749 67.855C279.983 67.855 280.099 67.9717 280.099 68.205C280.099 68.4383 279.983 68.555 279.749 68.555ZM279.749 69.955C279.516 69.955 279.399 69.8383 279.399 69.605C279.399 69.3717 279.516 69.255 279.749 69.255C279.983 69.255 280.099 69.3717 280.099 69.605C280.099 69.8383 279.983 69.955 279.749 69.955ZM279.749 71.355C279.516 71.355 279.399 71.2383 279.399 71.005C279.399 70.7717 279.516 70.655 279.749 70.655C279.983 70.655 280.099 70.7717 280.099 71.005C280.099 71.2383 279.983 71.355 279.749 71.355ZM279.749 56.2C279.516 56.2 279.399 56.0833 279.399 55.85C279.399 55.6167 279.516 55.5 279.749 55.5C279.983 55.5 280.099 55.6167 280.099 55.85C280.099 56.0833 279.983 56.2 279.749 56.2ZM279.749 57.6C279.516 57.6 279.399 57.4833 279.399 57.25C279.399 57.0167 279.516 56.9 279.749 56.9C279.983 56.9 280.099 57.0167 280.099 57.25C280.099 57.4833 279.983 57.6 279.749 57.6ZM279.749 58.93C279.516 58.93 279.399 58.8133 279.399 58.58C279.399 58.3467 279.516 58.23 279.749 58.23C279.983 58.23 280.099 58.3467 280.099 58.58C280.099 58.8133 279.983 58.93 279.749 58.93ZM279.749 60.19C279.516 60.19 279.399 60.0733 279.399 59.84C279.399 59.6067 279.516 59.49 279.749 59.49C279.983 59.49 280.099 59.6067 280.099 59.84C280.099 60.0733 279.983 60.19 279.749 60.19ZM279.749 65.86C279.516 65.86 279.399 65.7433 279.399 65.51C279.399 65.2767 279.516 65.16 279.749 65.16C279.983 65.16 280.099 65.2767 280.099 65.51C280.099 65.7433 279.983 65.86 279.749 65.86ZM279.749 78.425C279.516 78.425 279.399 78.3083 279.399 78.075C279.399 77.8417 279.516 77.725 279.749 77.725C279.983 77.725 280.099 77.8417 280.099 78.075C280.099 78.3083 279.983 78.425 279.749 78.425ZM279.749 79.825C279.516 79.825 279.399 79.7083 279.399 79.475C279.399 79.2417 279.516 79.125 279.749 79.125C279.983 79.125 280.099 79.2417 280.099 79.475C280.099 79.7083 279.983 79.825 279.749 79.825ZM281.499 57.915C281.266 57.915 281.149 57.7983 281.149 57.565C281.149 57.3317 281.266 57.215 281.499 57.215C281.733 57.215 281.849 57.3317 281.849 57.565C281.849 57.7983 281.733 57.915 281.499 57.915ZM280.659 56.865C280.426 56.865 280.309 56.7483 280.309 56.515C280.309 56.2817 280.426 56.165 280.659 56.165C280.893 56.165 281.009 56.2817 281.009 56.515C281.009 56.7483 280.893 56.865 280.659 56.865ZM282.339 58.965C282.106 58.965 281.989 58.8483 281.989 58.615C281.989 58.3817 282.106 58.265 282.339 58.265C282.573 58.265 282.689 58.3817 282.689 58.615C282.689 58.8483 282.573 58.965 282.339 58.965ZM283.179 60.015C282.946 60.015 282.829 59.8983 282.829 59.665C282.829 59.4317 282.946 59.315 283.179 59.315C283.413 59.315 283.529 59.4317 283.529 59.665C283.529 59.8983 283.413 60.015 283.179 60.015ZM284.019 61.065C283.786 61.065 283.669 60.9483 283.669 60.715C283.669 60.4817 283.786 60.365 284.019 60.365C284.253 60.365 284.369 60.4817 284.369 60.715C284.369 60.9483 284.253 61.065 284.019 61.065ZM284.859 62.115C284.626 62.115 284.509 61.9983 284.509 61.765C284.509 61.5317 284.626 61.415 284.859 61.415C285.093 61.415 285.209 61.5317 285.209 61.765C285.209 61.9983 285.093 62.115 284.859 62.115ZM285.699 63.165C285.466 63.165 285.349 63.0483 285.349 62.815C285.349 62.5817 285.466 62.465 285.699 62.465C285.933 62.465 286.049 62.5817 286.049 62.815C286.049 63.0483 285.933 63.165 285.699 63.165ZM286.539 64.215C286.306 64.215 286.189 64.0983 286.189 63.865C286.189 63.6317 286.306 63.515 286.539 63.515C286.773 63.515 286.889 63.6317 286.889 63.865C286.889 64.0983 286.773 64.215 286.539 64.215ZM287.379 65.265C287.146 65.265 287.029 65.1483 287.029 64.915C287.029 64.6817 287.146 64.565 287.379 64.565C287.613 64.565 287.729 64.6817 287.729 64.915C287.729 65.1483 287.613 65.265 287.379 65.265ZM288.219 66.315C287.986 66.315 287.869 66.1983 287.869 65.965C287.869 65.7317 287.986 65.615 288.219 65.615C288.453 65.615 288.569 65.7317 288.569 65.965C288.569 66.1983 288.453 66.315 288.219 66.315ZM289.059 67.365C288.826 67.365 288.709 67.2483 288.709 67.015C288.709 66.7817 288.826 66.665 289.059 66.665C289.293 66.665 289.409 66.7817 289.409 67.015C289.409 67.2483 289.293 67.365 289.059 67.365ZM289.899 68.415C289.666 68.415 289.549 68.2983 289.549 68.065C289.549 67.8317 289.666 67.715 289.899 67.715C290.133 67.715 290.249 67.8317 290.249 68.065C290.249 68.2983 290.133 68.415 289.899 68.415ZM290.739 69.465C290.506 69.465 290.389 69.3483 290.389 69.115C290.389 68.8817 290.506 68.765 290.739 68.765C290.973 68.765 291.089 68.8817 291.089 69.115C291.089 69.3483 290.973 69.465 290.739 69.465ZM291.579 70.515C291.346 70.515 291.229 70.3983 291.229 70.165C291.229 69.9317 291.346 69.815 291.579 69.815C291.813 69.815 291.929 69.9317 291.929 70.165C291.929 70.3983 291.813 70.515 291.579 70.515ZM292.419 71.565C292.186 71.565 292.069 71.4483 292.069 71.215C292.069 70.9817 292.186 70.865 292.419 70.865C292.653 70.865 292.769 70.9817 292.769 71.215C292.769 71.4483 292.653 71.565 292.419 71.565ZM293.259 72.615C293.026 72.615 292.909 72.4983 292.909 72.265C292.909 72.0317 293.026 71.915 293.259 71.915C293.493 71.915 293.609 72.0317 293.609 72.265C293.609 72.4983 293.493 72.615 293.259 72.615ZM294.099 73.665C293.866 73.665 293.749 73.5483 293.749 73.315C293.749 73.0817 293.866 72.965 294.099 72.965C294.333 72.965 294.449 73.0817 294.449 73.315C294.449 73.5483 294.333 73.665 294.099 73.665ZM294.939 74.715C294.706 74.715 294.589 74.5983 294.589 74.365C294.589 74.1317 294.706 74.015 294.939 74.015C295.173 74.015 295.289 74.1317 295.289 74.365C295.289 74.5983 295.173 74.715 294.939 74.715ZM295.779 75.765C295.546 75.765 295.429 75.6483 295.429 75.415C295.429 75.1817 295.546 75.065 295.779 75.065C296.013 75.065 296.129 75.1817 296.129 75.415C296.129 75.6483 296.013 75.765 295.779 75.765ZM296.619 76.815C296.386 76.815 296.269 76.6983 296.269 76.465C296.269 76.2317 296.386 76.115 296.619 76.115C296.853 76.115 296.969 76.2317 296.969 76.465C296.969 76.6983 296.853 76.815 296.619 76.815ZM297.459 77.865C297.226 77.865 297.109 77.7483 297.109 77.515C297.109 77.2817 297.226 77.165 297.459 77.165C297.693 77.165 297.809 77.2817 297.809 77.515C297.809 77.7483 297.693 77.865 297.459 77.865ZM298.299 78.915C298.066 78.915 297.949 78.7983 297.949 78.565C297.949 78.3317 298.066 78.215 298.299 78.215C298.533 78.215 298.649 78.3317 298.649 78.565C298.649 78.7983 298.533 78.915 298.299 78.915ZM299.139 72.72C298.906 72.72 298.789 72.6033 298.789 72.37C298.789 72.1367 298.906 72.02 299.139 72.02C299.373 72.02 299.489 72.1367 299.489 72.37C299.489 72.6033 299.373 72.72 299.139 72.72ZM299.139 74.155C298.906 74.155 298.789 74.0383 298.789 73.805C298.789 73.5717 298.906 73.455 299.139 73.455C299.373 73.455 299.489 73.5717 299.489 73.805C299.489 74.0383 299.373 74.155 299.139 74.155ZM299.139 75.59C298.906 75.59 298.789 75.4733 298.789 75.24C298.789 75.0067 298.906 74.89 299.139 74.89C299.373 74.89 299.489 75.0067 299.489 75.24C299.489 75.4733 299.373 75.59 299.139 75.59ZM299.139 77.025C298.906 77.025 298.789 76.9083 298.789 76.675C298.789 76.4417 298.906 76.325 299.139 76.325C299.373 76.325 299.489 76.4417 299.489 76.675C299.489 76.9083 299.373 77.025 299.139 77.025ZM299.139 61.59C298.906 61.59 298.789 61.4733 298.789 61.24C298.789 61.0067 298.906 60.89 299.139 60.89C299.373 60.89 299.489 61.0067 299.489 61.24C299.489 61.4733 299.373 61.59 299.139 61.59ZM299.139 62.955C298.906 62.955 298.789 62.8383 298.789 62.605C298.789 62.3717 298.906 62.255 299.139 62.255C299.373 62.255 299.489 62.3717 299.489 62.605C299.489 62.8383 299.373 62.955 299.139 62.955ZM299.139 64.46C298.906 64.46 298.789 64.3433 298.789 64.11C298.789 63.8767 298.906 63.76 299.139 63.76C299.373 63.76 299.489 63.8767 299.489 64.11C299.489 64.3433 299.373 64.46 299.139 64.46ZM299.139 67.26C298.906 67.26 298.789 67.1433 298.789 66.91C298.789 66.6767 298.906 66.56 299.139 66.56C299.373 66.56 299.489 66.6767 299.489 66.91C299.489 67.1433 299.373 67.26 299.139 67.26ZM299.139 68.555C298.906 68.555 298.789 68.4383 298.789 68.205C298.789 67.9717 298.906 67.855 299.139 67.855C299.373 67.855 299.489 67.9717 299.489 68.205C299.489 68.4383 299.373 68.555 299.139 68.555ZM299.139 69.955C298.906 69.955 298.789 69.8383 298.789 69.605C298.789 69.3717 298.906 69.255 299.139 69.255C299.373 69.255 299.489 69.3717 299.489 69.605C299.489 69.8383 299.373 69.955 299.139 69.955ZM299.139 71.355C298.906 71.355 298.789 71.2383 298.789 71.005C298.789 70.7717 298.906 70.655 299.139 70.655C299.373 70.655 299.489 70.7717 299.489 71.005C299.489 71.2383 299.373 71.355 299.139 71.355ZM299.139 56.2C298.906 56.2 298.789 56.0833 298.789 55.85C298.789 55.6167 298.906 55.5 299.139 55.5C299.373 55.5 299.489 55.6167 299.489 55.85C299.489 56.0833 299.373 56.2 299.139 56.2ZM299.139 57.6C298.906 57.6 298.789 57.4833 298.789 57.25C298.789 57.0167 298.906 56.9 299.139 56.9C299.373 56.9 299.489 57.0167 299.489 57.25C299.489 57.4833 299.373 57.6 299.139 57.6ZM299.139 58.93C298.906 58.93 298.789 58.8133 298.789 58.58C298.789 58.3467 298.906 58.23 299.139 58.23C299.373 58.23 299.489 58.3467 299.489 58.58C299.489 58.8133 299.373 58.93 299.139 58.93ZM299.139 60.19C298.906 60.19 298.789 60.0733 298.789 59.84C298.789 59.6067 298.906 59.49 299.139 59.49C299.373 59.49 299.489 59.6067 299.489 59.84C299.489 60.0733 299.373 60.19 299.139 60.19ZM299.139 65.86C298.906 65.86 298.789 65.7433 298.789 65.51C298.789 65.2767 298.906 65.16 299.139 65.16C299.373 65.16 299.489 65.2767 299.489 65.51C299.489 65.7433 299.373 65.86 299.139 65.86ZM299.139 78.425C298.906 78.425 298.789 78.3083 298.789 78.075C298.789 77.8417 298.906 77.725 299.139 77.725C299.373 77.725 299.489 77.8417 299.489 78.075C299.489 78.3083 299.373 78.425 299.139 78.425ZM299.139 79.825C298.906 79.825 298.789 79.7083 298.789 79.475C298.789 79.2417 298.906 79.125 299.139 79.125C299.373 79.125 299.489 79.2417 299.489 79.475C299.489 79.7083 299.373 79.825 299.139 79.825Z" fill="#FF004F"/>
</g>
<defs>
<clipPath id="clip0_18_9">
<rect width="320" height="97" fill="white"/>
</clipPath>
</defs>
</svg>
