<svg width="114" height="97" viewBox="0 0 114 97" fill="none" xmlns="http://www.w3.org/2000/svg">
<g clip-path="url(#clip0_3_27)">
<g style="mix-blend-mode:difference">
<path d="M46.6094 17.7031H67.0938C69.5938 17.7031 71.9531 18.7656 74.1719 20.8906C76.4219 22.9844 77.5469 25.5312 77.5469 28.5312C77.5469 29.6562 77.1406 30.6094 76.3281 31.3906C75.5469 32.1719 74.6719 32.5625 73.7031 32.5625C72.3594 32.5625 71.4375 32.2656 70.9375 31.6719C70.4375 31.0469 69.9531 29.9062 69.4844 28.25C69.0469 26.5938 68.0469 25.7656 66.4844 25.7656H47.0312C46.0938 25.7656 45.625 26.0625 45.625 26.6562C45.625 27.0312 45.8281 27.4687 46.2344 27.9688L75.4375 65.3281C76.8438 67.1406 77.5469 69.0781 77.5469 71.1406C77.5469 73.4844 76.6875 75.5469 74.9688 77.3281C73.2812 79.1094 71.3906 80 69.2969 80H48.0625C45.25 80 42.7969 78.9375 40.7031 76.8125C38.6406 74.6562 37.6094 72.2969 37.6094 69.7344C37.6094 66.7969 38.9844 65.3281 41.7344 65.3281C42.7969 65.3281 43.7031 65.7188 44.4531 66.5C45.2031 67.25 45.5781 68.1406 45.5781 69.1719C45.5781 70.0156 45.8594 70.7188 46.4219 71.2812C47.0156 71.8438 47.75 72.125 48.625 72.125H68.2188C69.0625 72.125 69.4844 71.7969 69.4844 71.1406C69.4844 70.8281 69.2812 70.4219 68.875 69.9219L39.7188 32.5625C38.3438 30.7812 37.6562 28.8438 37.6562 26.75C37.6562 24.3125 38.5312 22.2031 40.2812 20.4219C42.0312 18.6094 44.1406 17.7031 46.6094 17.7031Z" fill="white"/>
</g>
<g style="mix-blend-mode:lighten" opacity="0.3">
<path d="M68.3906 17.7031H47.9062C45.4062 17.7031 43.0469 18.7656 40.8281 20.8906C38.5781 22.9844 37.4531 25.5312 37.4531 28.5312C37.4531 29.6562 37.8594 30.6094 38.6719 31.3906C39.4531 32.1719 40.3281 32.5625 41.2969 32.5625C42.6406 32.5625 43.5625 32.2656 44.0625 31.6719C44.5625 31.0469 45.0469 29.9062 45.5156 28.25C45.9531 26.5938 46.9531 25.7656 48.5156 25.7656H67.9688C68.9062 25.7656 69.375 26.0625 69.375 26.6562C69.375 27.0312 69.1719 27.4687 68.7656 27.9688L39.5625 65.3281C38.1562 67.1406 37.4531 69.0781 37.4531 71.1406C37.4531 73.4844 38.3125 75.5469 40.0312 77.3281C41.7188 79.1094 43.6094 80 45.7031 80H66.9375C69.75 80 72.2031 78.9375 74.2969 76.8125C76.3594 74.6562 77.3906 72.2969 77.3906 69.7344C77.3906 66.7969 76.0156 65.3281 73.2656 65.3281C72.2031 65.3281 71.2969 65.7188 70.5469 66.5C69.7969 67.25 69.4219 68.1406 69.4219 69.1719C69.4219 70.0156 69.1406 70.7188 68.5781 71.2812C67.9844 71.8438 67.25 72.125 66.375 72.125H46.7812C45.9375 72.125 45.5156 71.7969 45.5156 71.1406C45.5156 70.8281 45.7188 70.4219 46.125 69.9219L75.2812 32.5625C76.6562 30.7812 77.3438 28.8438 77.3438 26.75C77.3438 24.3125 76.4688 22.2031 74.7188 20.4219C72.9688 18.6094 70.8594 17.7031 68.3906 17.7031Z" fill="white"/>
</g>
</g>
<defs>
<clipPath id="clip0_3_27">
<rect width="114" height="97" fill="white"/>
</clipPath>
</defs>
</svg>
