<svg width="259" height="26" viewBox="0 0 259 26" fill="none" xmlns="http://www.w3.org/2000/svg">
<path d="M3.75391 0.0429688H12.2891C13.3307 0.0429688 14.3138 0.485677 15.2383 1.37109C16.1758 2.24349 16.6445 3.30469 16.6445 4.55469C16.6445 5.02344 16.4753 5.42057 16.1367 5.74609C15.8112 6.07161 15.4466 6.23438 15.043 6.23438C14.4831 6.23438 14.099 6.11068 13.8906 5.86328C13.6823 5.60286 13.4805 5.1276 13.2852 4.4375C13.1029 3.7474 12.6862 3.40234 12.0352 3.40234H3.92969C3.53906 3.40234 3.34375 3.52604 3.34375 3.77344C3.34375 3.92969 3.42839 4.11198 3.59766 4.32031L15.7656 19.8867C16.3516 20.6419 16.6445 21.4492 16.6445 22.3086C16.6445 23.2852 16.2865 24.1445 15.5703 24.8867C14.8672 25.6289 14.0794 26 13.207 26H4.35938C3.1875 26 2.16536 25.5573 1.29297 24.6719C0.433594 23.7734 0.00390625 22.7904 0.00390625 21.7227C0.00390625 20.4987 0.576823 19.8867 1.72266 19.8867C2.16536 19.8867 2.54297 20.0495 2.85547 20.375C3.16797 20.6875 3.32422 21.0586 3.32422 21.4883C3.32422 21.8398 3.44141 22.1328 3.67578 22.3672C3.92318 22.6016 4.22917 22.7188 4.59375 22.7188H12.7578C13.1094 22.7188 13.2852 22.582 13.2852 22.3086C13.2852 22.1784 13.2005 22.0091 13.0312 21.8008L0.882812 6.23438C0.309896 5.49219 0.0234375 4.6849 0.0234375 3.8125C0.0234375 2.79688 0.388021 1.91797 1.11719 1.17578C1.84635 0.420573 2.72526 0.0429688 3.75391 0.0429688ZM24.3203 23.7148L30.9609 1.27344C31.2214 0.453125 31.7682 0.0429688 32.6016 0.0429688C33.4089 0.0429688 33.9167 0.388021 34.125 1.07812L40.668 23.8711C40.7201 24.0404 40.7461 24.2031 40.7461 24.3594C40.7461 24.8151 40.5898 25.2057 40.2773 25.5312C39.9648 25.8438 39.6068 26 39.2031 26C38.3438 26 37.7969 25.6029 37.5625 24.8086L36.2344 20.3555H28.7539L27.3086 25.1211C27.2695 25.3294 27.1068 25.5312 26.8203 25.7266C26.5339 25.9089 26.2214 26 25.8828 26C25.401 26 25.0039 25.8372 24.6914 25.5117C24.3789 25.1862 24.2227 24.7891 24.2227 24.3203C24.2227 24.125 24.2552 23.9232 24.3203 23.7148ZM32.5625 7.64062L29.75 17.0352H35.2773L32.5625 7.64062ZM48.5 23.7148L55.1406 1.27344C55.401 0.453125 55.9479 0.0429688 56.7812 0.0429688C57.5885 0.0429688 58.0964 0.388021 58.3047 1.07812L64.8477 23.8711C64.8997 24.0404 64.9258 24.2031 64.9258 24.3594C64.9258 24.8151 64.7695 25.2057 64.457 25.5312C64.1445 25.8438 63.7865 26 63.3828 26C62.5234 26 61.9766 25.6029 61.7422 24.8086L60.4141 20.3555H52.9336L51.4883 25.1211C51.4492 25.3294 51.2865 25.5312 51 25.7266C50.7135 25.9089 50.401 26 50.0625 26C49.5807 26 49.1836 25.8372 48.8711 25.5117C48.5586 25.1862 48.4023 24.7891 48.4023 24.3203C48.4023 24.125 48.4349 23.9232 48.5 23.7148ZM56.7422 7.64062L53.9297 17.0352H59.457L56.7422 7.64062ZM79.1836 10.2383V9.39844L75.7852 4.55469V24.3594C75.7852 24.8151 75.6224 25.2057 75.2969 25.5312C74.9844 25.8438 74.6003 26 74.1445 26C73.6888 26 73.2982 25.8372 72.9727 25.5117C72.6602 25.1862 72.5039 24.8021 72.5039 24.3594V0.0429688H76.7422L80.7852 5.92188L84.9453 0.0429688H89.1055V24.3594C89.1055 24.8151 88.9362 25.2057 88.5977 25.5312C88.2721 25.8438 87.8815 26 87.4258 26C86.9831 26 86.599 25.8372 86.2734 25.5117C85.9479 25.1862 85.7852 24.8021 85.7852 24.3594V4.63281L82.4648 9.32031V10.2383C82.4648 10.681 82.3021 11.0651 81.9766 11.3906C81.651 11.7161 81.2669 11.8789 80.8242 11.8789C80.3685 11.8789 79.9779 11.7161 79.6523 11.3906C79.3398 11.0651 79.1836 10.681 79.1836 10.2383ZM124.652 0.0429688H133.188C134.229 0.0429688 135.212 0.485677 136.137 1.37109C137.074 2.24349 137.543 3.30469 137.543 4.55469C137.543 5.02344 137.374 5.42057 137.035 5.74609C136.71 6.07161 136.345 6.23438 135.941 6.23438C135.382 6.23438 134.997 6.11068 134.789 5.86328C134.581 5.60286 134.379 5.1276 134.184 4.4375C134.001 3.7474 133.585 3.40234 132.934 3.40234H124.828C124.438 3.40234 124.242 3.52604 124.242 3.77344C124.242 3.92969 124.327 4.11198 124.496 4.32031L136.664 19.8867C137.25 20.6419 137.543 21.4492 137.543 22.3086C137.543 23.2852 137.185 24.1445 136.469 24.8867C135.766 25.6289 134.978 26 134.105 26H125.258C124.086 26 123.064 25.5573 122.191 24.6719C121.332 23.7734 120.902 22.7904 120.902 21.7227C120.902 20.4987 121.475 19.8867 122.621 19.8867C123.064 19.8867 123.441 20.0495 123.754 20.375C124.066 20.6875 124.223 21.0586 124.223 21.4883C124.223 21.8398 124.34 22.1328 124.574 22.3672C124.822 22.6016 125.128 22.7188 125.492 22.7188H133.656C134.008 22.7188 134.184 22.582 134.184 22.3086C134.184 22.1784 134.099 22.0091 133.93 21.8008L121.781 6.23438C121.208 5.49219 120.922 4.6849 120.922 3.8125C120.922 2.79688 121.286 1.91797 122.016 1.17578C122.745 0.420573 123.624 0.0429688 124.652 0.0429688ZM145.043 24.3594V1.68359C145.043 1.24089 145.199 0.856771 145.512 0.53125C145.837 0.205729 146.228 0.0429688 146.684 0.0429688C147.126 0.0429688 147.51 0.205729 147.836 0.53125C148.161 0.856771 148.324 1.24089 148.324 1.68359V11.3516H158.324V1.68359C158.324 1.24089 158.48 0.856771 158.793 0.53125C159.118 0.205729 159.509 0.0429688 159.965 0.0429688C160.421 0.0429688 160.805 0.205729 161.117 0.53125C161.443 0.856771 161.605 1.25391 161.605 1.72266V24.3594C161.605 24.8021 161.436 25.1862 161.098 25.5117C160.772 25.8372 160.395 26 159.965 26C159.496 26 159.105 25.8438 158.793 25.5312C158.48 25.2057 158.324 24.8151 158.324 24.3594V14.6328H148.363V24.3594C148.363 24.8021 148.194 25.1862 147.855 25.5117C147.53 25.8372 147.139 26 146.684 26C146.241 26 145.857 25.8438 145.531 25.5312C145.206 25.2057 145.043 24.8151 145.043 24.3594ZM184.184 3.36328H172.582V11.3516H177.582C178.025 11.3516 178.409 11.5143 178.734 11.8398C179.06 12.1654 179.223 12.5495 179.223 12.9922C179.223 13.4609 179.06 13.8581 178.734 14.1836C178.422 14.5091 178.038 14.6719 177.582 14.6719H172.582V22.7188H184.223C184.665 22.7188 185.049 22.8815 185.375 23.207C185.701 23.5195 185.863 23.9036 185.863 24.3594C185.863 24.8151 185.694 25.2057 185.355 25.5312C185.03 25.8438 184.639 26 184.184 26H169.301V0.0429688H184.184C184.639 0.0429688 185.03 0.21224 185.355 0.550781C185.694 0.876302 185.863 1.26693 185.863 1.72266C185.863 2.16536 185.694 2.54948 185.355 2.875C185.03 3.20052 184.639 3.36328 184.184 3.36328ZM193.52 24.3594V0.0429688H205.121C206.462 0.0429688 207.615 0.53125 208.578 1.50781C209.555 2.48438 210.043 3.64974 210.043 5.00391V6.87891C210.043 8.24609 209.561 9.41797 208.598 10.3945C207.634 11.3581 206.475 11.8398 205.121 11.8398H203.031L209.75 23.3633C209.958 23.7018 210.062 24.0404 210.062 24.3789C210.062 24.8216 209.893 25.2057 209.555 25.5312C209.216 25.8438 208.832 26 208.402 26C207.751 26 207.257 25.707 206.918 25.1211L199.203 11.8398H196.84V24.3594C196.84 24.8151 196.671 25.2057 196.332 25.5312C196.007 25.8438 195.616 26 195.16 26C194.704 26 194.314 25.8438 193.988 25.5312C193.676 25.2057 193.52 24.8151 193.52 24.3594ZM196.801 8.55859H205.121C205.577 8.55859 205.961 8.40234 206.273 8.08984C206.599 7.76432 206.762 7.3737 206.762 6.91797V5.00391C206.762 4.54818 206.599 4.16406 206.273 3.85156C205.961 3.52604 205.577 3.36328 205.121 3.36328H196.801V8.55859ZM229.809 2.44531L233.422 9.80859C233.93 10.8112 234.184 11.8984 234.184 13.0703C234.184 14.2161 233.93 15.2969 233.422 16.3125L229.809 23.5977C229.04 25.1992 227.738 26 225.902 26C225.03 26 224.242 25.7721 223.539 25.3164C222.849 24.8607 222.328 24.2878 221.977 23.5977L218.344 16.3125C217.862 15.362 217.621 14.2812 217.621 13.0703C217.621 11.8594 217.862 10.7721 218.344 9.80859L221.977 2.44531C222.797 0.84375 224.105 0.0429688 225.902 0.0429688C227.725 0.0429688 229.027 0.84375 229.809 2.44531ZM224.809 4.08594L221.41 11C221.098 11.6901 220.941 12.3672 220.941 13.0312C220.941 13.7474 221.098 14.431 221.41 15.082L224.906 22.0742C225.089 22.5039 225.421 22.7188 225.902 22.7188C226.319 22.7188 226.638 22.5039 226.859 22.0742L230.375 15.082C230.701 14.3919 230.863 13.7083 230.863 13.0312C230.863 12.3151 230.701 11.638 230.375 11L226.938 4.08594C226.716 3.57812 226.371 3.32422 225.902 3.32422C225.434 3.32422 225.069 3.57812 224.809 4.08594ZM258.363 1.72266V26H253.949L245.121 5.84375V24.3594C245.121 24.8151 244.958 25.2057 244.633 25.5312C244.32 25.8438 243.936 26 243.48 26C243.025 26 242.634 25.8438 242.309 25.5312C241.996 25.2057 241.84 24.8151 241.84 24.3594V0.0429688H246.195L255.043 20.1602V1.72266C255.043 1.26693 255.206 0.876302 255.531 0.550781C255.87 0.21224 256.267 0.0429688 256.723 0.0429688C257.178 0.0429688 257.562 0.205729 257.875 0.53125C258.201 0.856771 258.363 1.25391 258.363 1.72266Z" fill="white"/>
</svg>
